<mxfile host="app.diagrams.net" modified="2023-05-19T22:11:16.647Z" agent="Mozilla/5.0 (Windows NT 10.0; Win64; x64) AppleWebKit/537.36 (KHTML, like Gecko) Chrome/113.0.0.0 Safari/537.36" etag="ET7pfRb4ZQz1J-wWq9gz" version="21.3.2" type="device">
  <diagram id="5AwjitjtKUYFk1epi1YD" name="PÃ¡gina-1">
    <mxGraphModel dx="1290" dy="-596" grid="1" gridSize="10" guides="1" tooltips="1" connect="1" arrows="1" fold="1" page="1" pageScale="1" pageWidth="827" pageHeight="1169" math="0" shadow="0">
      <root>
        <mxCell id="0" />
        <mxCell id="1" parent="0" />
        <mxCell id="N3kcKBxll-6l0_vqil-b-1" value="&amp;lt;&amp;lt;Entity&amp;gt;&amp;gt;&lt;br&gt;&amp;lt;&amp;lt;Root&amp;gt;&amp;gt;&lt;br&gt;Course " style="rounded=0;whiteSpace=wrap;html=1;" parent="1" vertex="1">
          <mxGeometry x="689.96" y="1696.48" width="120" height="60" as="geometry" />
        </mxCell>
        <mxCell id="N3kcKBxll-6l0_vqil-b-2" value="&amp;lt;&amp;lt;Value Object&amp;gt;&amp;gt;&lt;br&gt;Course Title" style="rounded=0;whiteSpace=wrap;html=1;" parent="1" vertex="1">
          <mxGeometry x="639.96" y="1570" width="120" height="60" as="geometry" />
        </mxCell>
        <mxCell id="N3kcKBxll-6l0_vqil-b-3" value="&amp;lt;&amp;lt;Value Object&amp;gt;&amp;gt;&lt;br&gt;Course Status " style="rounded=0;whiteSpace=wrap;html=1;" parent="1" vertex="1">
          <mxGeometry x="939.96" y="1729.48" width="120" height="60" as="geometry" />
        </mxCell>
        <mxCell id="N3kcKBxll-6l0_vqil-b-4" value="&amp;lt;&amp;lt;Value Object&amp;gt;&amp;gt;&lt;br&gt;Course Identifier" style="rounded=0;whiteSpace=wrap;html=1;" parent="1" vertex="1">
          <mxGeometry x="929.96" y="1586.48" width="120" height="60" as="geometry" />
        </mxCell>
        <mxCell id="N3kcKBxll-6l0_vqil-b-5" value="&amp;lt;&amp;lt;Value Object&amp;gt;&amp;gt;&lt;br&gt;Course Name" style="rounded=0;whiteSpace=wrap;html=1;" parent="1" vertex="1">
          <mxGeometry x="789.96" y="1589.48" width="120" height="60" as="geometry" />
        </mxCell>
        <mxCell id="N3kcKBxll-6l0_vqil-b-6" value="&amp;lt;&amp;lt;Value Object&amp;gt;&amp;gt;&lt;br&gt;Enrollment Limits" style="rounded=0;whiteSpace=wrap;html=1;" parent="1" vertex="1">
          <mxGeometry x="929.96" y="1656.48" width="120" height="60" as="geometry" />
        </mxCell>
        <mxCell id="N3kcKBxll-6l0_vqil-b-7" value="&amp;lt;&amp;lt;Value Object&amp;gt;&amp;gt;&lt;br&gt;Description" style="rounded=0;whiteSpace=wrap;html=1;" parent="1" vertex="1">
          <mxGeometry x="530" y="1656.48" width="120" height="60" as="geometry" />
        </mxCell>
        <mxCell id="N3kcKBxll-6l0_vqil-b-8" value="" style="endArrow=diamondThin;endFill=1;endSize=24;html=1;rounded=0;exitX=0.5;exitY=1;exitDx=0;exitDy=0;entryX=0.5;entryY=0;entryDx=0;entryDy=0;" parent="1" source="N3kcKBxll-6l0_vqil-b-2" target="N3kcKBxll-6l0_vqil-b-1" edge="1">
          <mxGeometry width="160" relative="1" as="geometry">
            <mxPoint x="1209.96" y="1746.48" as="sourcePoint" />
            <mxPoint x="1239.96" y="1705.48" as="targetPoint" />
          </mxGeometry>
        </mxCell>
        <mxCell id="N3kcKBxll-6l0_vqil-b-9" value="" style="endArrow=diamondThin;endFill=1;endSize=24;html=1;rounded=0;exitX=0;exitY=1;exitDx=0;exitDy=0;entryX=0.75;entryY=0;entryDx=0;entryDy=0;" parent="1" source="N3kcKBxll-6l0_vqil-b-5" target="N3kcKBxll-6l0_vqil-b-1" edge="1">
          <mxGeometry width="160" relative="1" as="geometry">
            <mxPoint x="889.96" y="1565.48" as="sourcePoint" />
            <mxPoint x="809.96" y="1646.48" as="targetPoint" />
          </mxGeometry>
        </mxCell>
        <mxCell id="N3kcKBxll-6l0_vqil-b-10" value="" style="endArrow=diamondThin;endFill=1;endSize=24;html=1;rounded=0;entryX=1;entryY=0.25;entryDx=0;entryDy=0;exitX=0;exitY=1;exitDx=0;exitDy=0;" parent="1" source="N3kcKBxll-6l0_vqil-b-4" target="N3kcKBxll-6l0_vqil-b-1" edge="1">
          <mxGeometry width="160" relative="1" as="geometry">
            <mxPoint x="889.96" y="1656.48" as="sourcePoint" />
            <mxPoint x="759.96" y="1706.48" as="targetPoint" />
          </mxGeometry>
        </mxCell>
        <mxCell id="N3kcKBxll-6l0_vqil-b-12" value="" style="endArrow=diamondThin;endFill=1;endSize=24;html=1;rounded=0;exitX=0;exitY=0.5;exitDx=0;exitDy=0;entryX=1;entryY=0.75;entryDx=0;entryDy=0;" parent="1" source="N3kcKBxll-6l0_vqil-b-3" target="N3kcKBxll-6l0_vqil-b-1" edge="1">
          <mxGeometry width="160" relative="1" as="geometry">
            <mxPoint x="829.96" y="1615.48" as="sourcePoint" />
            <mxPoint x="719.96" y="1706.48" as="targetPoint" />
          </mxGeometry>
        </mxCell>
        <mxCell id="N3kcKBxll-6l0_vqil-b-13" value="" style="endArrow=diamondThin;endFill=1;endSize=24;html=1;rounded=0;entryX=1;entryY=0.5;entryDx=0;entryDy=0;exitX=0;exitY=0.5;exitDx=0;exitDy=0;" parent="1" source="N3kcKBxll-6l0_vqil-b-6" target="N3kcKBxll-6l0_vqil-b-1" edge="1">
          <mxGeometry width="160" relative="1" as="geometry">
            <mxPoint x="429.96000000000004" y="1836.48" as="sourcePoint" />
            <mxPoint x="659.96" y="1736.48" as="targetPoint" />
          </mxGeometry>
        </mxCell>
        <mxCell id="N3kcKBxll-6l0_vqil-b-14" value="" style="endArrow=diamondThin;endFill=1;endSize=24;html=1;rounded=0;exitX=1;exitY=0.5;exitDx=0;exitDy=0;entryX=0;entryY=0.25;entryDx=0;entryDy=0;" parent="1" source="N3kcKBxll-6l0_vqil-b-7" target="N3kcKBxll-6l0_vqil-b-1" edge="1">
          <mxGeometry width="160" relative="1" as="geometry">
            <mxPoint x="769.96" y="1546.48" as="sourcePoint" />
            <mxPoint x="719.96" y="1706.48" as="targetPoint" />
          </mxGeometry>
        </mxCell>
        <mxCell id="N3kcKBxll-6l0_vqil-b-17" value="1" style="text;html=1;strokeColor=none;fillColor=none;align=center;verticalAlign=middle;whiteSpace=wrap;rounded=0;fontSize=10;" parent="1" vertex="1">
          <mxGeometry x="759.96" y="1759.9999999999998" width="20" height="16" as="geometry" />
        </mxCell>
        <mxCell id="N3kcKBxll-6l0_vqil-b-22" value="&amp;lt;&amp;lt;Entity&amp;gt;&amp;gt;&lt;br&gt;&amp;lt;&amp;lt;Root&amp;gt;&amp;gt;&lt;br style=&quot;border-color: var(--border-color);&quot;&gt;Extra-Class" style="rounded=0;whiteSpace=wrap;html=1;" parent="1" vertex="1">
          <mxGeometry x="689.96" y="1926.48" width="120" height="60" as="geometry" />
        </mxCell>
        <mxCell id="N3kcKBxll-6l0_vqil-b-23" value="1..*" style="text;html=1;strokeColor=none;fillColor=none;align=center;verticalAlign=middle;whiteSpace=wrap;rounded=0;fontSize=10;" parent="1" vertex="1">
          <mxGeometry x="719.96" y="1894.48" width="20" height="16" as="geometry" />
        </mxCell>
        <mxCell id="N3kcKBxll-6l0_vqil-b-24" value="&amp;lt;&amp;lt;Value Object&amp;gt;&amp;gt;&lt;br&gt;Extra Class ID" style="rounded=0;whiteSpace=wrap;html=1;" parent="1" vertex="1">
          <mxGeometry x="850" y="1976" width="120" height="60" as="geometry" />
        </mxCell>
        <mxCell id="N3kcKBxll-6l0_vqil-b-25" value="" style="endArrow=diamondThin;endFill=1;endSize=24;html=1;rounded=0;exitX=0;exitY=0.5;exitDx=0;exitDy=0;entryX=1;entryY=0.5;entryDx=0;entryDy=0;" parent="1" source="N3kcKBxll-6l0_vqil-b-24" target="N3kcKBxll-6l0_vqil-b-22" edge="1">
          <mxGeometry width="160" relative="1" as="geometry">
            <mxPoint x="1079.96" y="1940.48" as="sourcePoint" />
            <mxPoint x="1129.96" y="1910.48" as="targetPoint" />
          </mxGeometry>
        </mxCell>
        <mxCell id="N3kcKBxll-6l0_vqil-b-26" value="has" style="endArrow=classic;html=1;rounded=0;entryX=0.5;entryY=0;entryDx=0;entryDy=0;exitX=0.5;exitY=1;exitDx=0;exitDy=0;" parent="1" source="N3kcKBxll-6l0_vqil-b-1" target="N3kcKBxll-6l0_vqil-b-22" edge="1">
          <mxGeometry x="-0.0174" y="10" width="50" height="50" relative="1" as="geometry">
            <mxPoint x="819.96" y="1889.48" as="sourcePoint" />
            <mxPoint x="869.96" y="1839.48" as="targetPoint" />
            <mxPoint as="offset" />
          </mxGeometry>
        </mxCell>
        <mxCell id="N3kcKBxll-6l0_vqil-b-28" value="&amp;lt;&amp;lt;Value Object&amp;gt;&amp;gt;&lt;br&gt;Date " style="rounded=0;whiteSpace=wrap;html=1;" parent="1" vertex="1">
          <mxGeometry x="860" y="2050" width="120" height="60" as="geometry" />
        </mxCell>
        <mxCell id="N3kcKBxll-6l0_vqil-b-29" value="&amp;lt;&amp;lt;Value Object&amp;gt;&amp;gt;&lt;br&gt;Duration" style="rounded=0;whiteSpace=wrap;html=1;" parent="1" vertex="1">
          <mxGeometry x="520" y="2050" width="120" height="60" as="geometry" />
        </mxCell>
        <mxCell id="N3kcKBxll-6l0_vqil-b-30" value="&amp;lt;&amp;lt;Value Object&amp;gt;&amp;gt;&lt;br&gt;Scheduled Date" style="rounded=0;whiteSpace=wrap;html=1;" parent="1" vertex="1">
          <mxGeometry x="689.96" y="2050" width="120" height="60" as="geometry" />
        </mxCell>
        <mxCell id="N3kcKBxll-6l0_vqil-b-31" value="" style="endArrow=diamondThin;endFill=1;endSize=24;html=1;rounded=0;exitX=1;exitY=0.5;exitDx=0;exitDy=0;entryX=0;entryY=0.5;entryDx=0;entryDy=0;" parent="1" source="N3kcKBxll-6l0_vqil-b-29" target="N3kcKBxll-6l0_vqil-b-30" edge="1">
          <mxGeometry width="160" relative="1" as="geometry">
            <mxPoint x="470" y="1993" as="sourcePoint" />
            <mxPoint x="440" y="1948" as="targetPoint" />
          </mxGeometry>
        </mxCell>
        <mxCell id="N3kcKBxll-6l0_vqil-b-32" value="" style="endArrow=diamondThin;endFill=1;endSize=24;html=1;rounded=0;exitX=0;exitY=0.5;exitDx=0;exitDy=0;" parent="1" source="N3kcKBxll-6l0_vqil-b-28" target="N3kcKBxll-6l0_vqil-b-30" edge="1">
          <mxGeometry width="160" relative="1" as="geometry">
            <mxPoint x="560" y="1892" as="sourcePoint" />
            <mxPoint x="440" y="2006" as="targetPoint" />
          </mxGeometry>
        </mxCell>
        <mxCell id="N3kcKBxll-6l0_vqil-b-33" value="" style="endArrow=diamondThin;endFill=1;endSize=24;html=1;rounded=0;exitX=0.5;exitY=1;exitDx=0;exitDy=0;entryX=0.5;entryY=0;entryDx=0;entryDy=0;" parent="1" source="N3kcKBxll-6l0_vqil-b-22" target="N3kcKBxll-6l0_vqil-b-30" edge="1">
          <mxGeometry width="160" relative="1" as="geometry">
            <mxPoint x="614" y="1890" as="sourcePoint" />
            <mxPoint x="604" y="1970" as="targetPoint" />
          </mxGeometry>
        </mxCell>
        <mxCell id="N3kcKBxll-6l0_vqil-b-34" value="" style="shape=stencil(nZ3ZsiQ3jkS/pl7TuC/PPdP/ITOVWrLuUclK6ln+fshR53LdIw+r5k0LcDOCQYKAA3B8yn/5/ecffvv8KYXf//j65e+f/+uXH//4+VP+t08p/fLrz5+//vLH+qdP+d8/5b/89OXr5799/fLPX3/8899/+2FL7n/6jy//uf/Cf/+pl9Mtj62Vwv/8+V/qbab/+w9//VP+H7/8+lE+mHwB+Xgb84N8u4WI8m2o/ED5UkU+VpSP+vcTPX+4zSDymf5+uFX9+6WjfEoi32D907wNfd8O67PkbX0mPP+SD+WDfL9Fep5xf9ynfIb1XPJxinyl5+m3nkW+T5RP/YP8uAX6++02kshn2J/780+Rr/Q89b7cT/lBz1NvNX6Qn7ifl3zoIl9o/cutFZHv9PfLLX1c/xh4QfNtmAKdmKVQmio0VhATtBTIBqWkeyhGPPRLoQRVqBkV9JGW3aNtFO+n9qGQ7h/ynUKZqpDpkdYrRlXAnboWMasCbtX1meTD5VukRwp6dpbCvxb6nUKMqvCv37xUiGYdl8KER1oKVR6p3A3yO4WcVaHCOywFOaBLgSxYHPed81CoeAUuhVpUIdMqjVsaqtDgPCyFkFSBvITY70blodDudv+dQhmqQPfmUpB7cyl0eod178kv9PtbvVPoURUyfemmV+1SoLt8r4k9Eu7Wx6o/FAYasv1dmypU2kvVLN/gL11vUTbfvCXafOU2uio0WtZ1Y0VVwFUq9/vmrrDsyOGRwlQFfKR1xxVVoBtoKYhXuM0zbe+sZmYp4F7KamaWwqRfSOr4JL5Q9vXRVaHRmV5/T34h4x33vAJfFAp9uKimcnsfcGXta/zjedj+Df9CDqrQ6B3iLcgv1PvuulYI9h0eLuA7Bd1LHIJt/0seqaGPvhSiKZBtnerj7qAB5XtT+YryckkveQpiphqx7dSjvPi4S57fN8j7spO+bvSm8mRfxn2L3eVXlBjgeYb6hjsKhS00dFPvKBf26IrZRD7er+tL+fV1ospPlJebNid8/n53xh/yGa/yR0j6Ik/7reu9nMv9VL+RD1HlK8g3vT5yxZiq2X6o+PxNY8jccH2aGoglTz5t0xh+ydP+aYop5H7fsZfyVV2EvBxQeJ5660HlaX2q7Z953+Fv5HNXeQpD6i19fJ4S0E2ruj5LfsBVvFyoj/uzRAz6i56vknC/FV2fJU/xQVEMseR78PlGXnz3JU8gVlG/oBS8wLJidkt+Euio0Uqp6HdkvY/KAdTUwGDJE+iV7xDUQ77j/lxhd1d5QlCWtZTvO+5/4ToOt/027jvqjbyu58SgOqmHXx4ewhv58vF96zpfBG2oM135fCW1/zUyTqH+wJKf5FVqGFcT2isDiyoDLVExviWPsfGtyvPw+YrqXy158seiYrK13mOJN/Kyn+sBPbD1f9ywl/KGdNWO911QSLMO9PeC4o2VQd8VbYr8RLgx3K3HA9Pn+yUowrrkaX8GtectYtATNNBr64SCfQiKPzXez4+3e5Gf+L0E+mwF7WFQf6Yt+4/Pozmkdr/xv1me/OGg+78tDxnXX+UHni+XnwgYmnwPmBS6kh/f8zw93k/EN8qnO7L8jfL5cH5dnvwHlz/uN5Gv9xP3jfLtDox/szxlI2x/9o7xl52XPtA+B/WH+yMifif/0Z70ebDPYh/GaX9qjvBhsd/Zt4/PP+Ld4r2TryrP9qp8tFcj3T3Gb7PnI2N8FNSfX/L8fcUfW/IU3wWNv0ZBfGBZA5MnBCuovzQq+mOGwS35gf6D3BeDk/zRcsCPLPI7f0zet2OSOSo+sOQP/qr8/YH702o+ljz/fYkfx+QiCFv/if5Yvkevd/kZDvGd4ANLnvyrov7/jPj8RSHZJU/rU/W8z4Tf19I4S57i36YJvpnviOUbPErs7ZIn/61rjc4seL8M9Vcn50Cn7rf5QDDeAtCyoJXzXObRLwVKdsd4D4heFMhEx2TfgH2+ncExBcxolrsP/KKA+ZVin62hm7KzgbKsnTPLTQO9pYDfoWs2cCmQZ7YUhilUMqXD6mM6+opx2l7qWPGyFCTaXgrkrXi4tBSwHuURfT0UBuL7HqBPDkCTZdKWAuW5HIJZChQSbMzJ3oF8lg2yZVXAyq+iKNhSINQ1FU07LAWsjTMceCmQEdjAty0rOUZeXTYnl/k8gIgXBfzSw2z9AWsbdvlMTEWnqTUESwFv52BWY6IR2DWZRRUo/t5FpdUUCLC13PXkiCJnDRG2Ar10tjM9MQbPXog372fwWqEqarIVaJWq3Q8HhaZ5xK1AL93NzBwVmm0+VBhmZo4KzVeJFKYGv2eF7/uFYuH1WeE7f8EA07NCcwWwGiVdfAdysHbGyI4omfuS7Z6e6AksBT9AFHWWcgcFXhXokYrGbVuB8lpVy0DnRGCn1Au7RNfuTjS5MaZ3aFrxclLoCqbPiXVBpSsavRXAtpZx8Q7knJShFS9zYvxTptaN7luUduu82EuRMrwGsW0F2K3VMJLtCdAvRAW1tgL9QtSqmu2cwOarSWGtybV+S0Gddc5r1KyJ84NHVvOVC0eRdNHU6nYSKdVe70jZqxsK93StFvgNdB1qMyMwEK2qzS5Fhm+qR1nLC6Tv0O1C4YRvda9ycIXEUIhohzQEmUzFeHfQRI807QB1jHabZYEOcVzzI9oR1mtRcfAdWtIvRHOl+/03rxWSYQIc7TaP4zqmEps1UywF8r2Xgpr7jhdKK1odNTsGHEtB0vuzI9SyFBT94aalVhXAnZ0LsKoFHA0zqK1Z8NowBbYUejcFeul+P/IvCp1eut//9yu+RF96mN/aeC8N294roqBHmmbIGlq+Ng15bFhp1K2DZCmQIevBfL6KIX6PdoAqgptLQb2Zig0h3ZqLlgIBg0tBfb6KoWXP5vNV/NLdjQBXTPWiJW6TU55LQSGviph694u9IhCyFNTMVLQa/VFm/aJAZV/9sftfcG/Cl3aa1oBySvz3bpmNghhZf3RPvkL3VAo7zMwUvB+6ewIF74c+zZUu6M10d9YLOuvDjQDX8w43Ahld6RHtFzIagRHNkGV0HYYH4JlryJOZ+4wfbuR7Dd2LAn2Hke1SzHiLjsfOeSgkzAuOaq5DQkO2FPTDJYynh5UyLwVMffk9HdGrHFZ8vhQIOVkKUr26s5X0SEN755YClQOMaQH4A3F6p6ARCidopyXw1p8g734a5LUUqIR+mu89OABfClqkwJHi3ghdFWhrTPO9B/e2T6vDHexV7hOcVIH8pW2F5JEq4nxPS/pQKOi3PjO/LwpkBHbq14pLKBbdt7JVx1AScloP47K25Als78jqgSjpsl1CISWY/NKWOOqcItyO88eX7hwObF9eeBsq1qA945GHAhft7BBJqr4y2qXZNQZajikua1efb3njaDW6ZvHbRHzpmZh9KAy8RTfs8fGRVhhFEPC03qpDbegGh6Q4t6L1nlZ90dh12BCalHsm9O6npQhbRER3GmlIC5jmnJZ0qVyB9ISUHwodPYGN1H98h9oQhZtTk8G18oezS7EWhLymIVgbUKUPZ32SNWLgtxSksK4GPtNT89OFk8FbwVpHDl9azH1hIGRa+UWp6JxsBXmkgtWN+8NJu8wDp36rIP1ECftN9l6Sl47oSvtuPXSM7fMgLX6cQ3kmQB4K43impSmw8wEyq7G7COnaNbuUKwJSc2jfVS5Yt/sE3h8KmU+c4d67s5TvuCmPlDDTtK8s6S2NfKF0TRHmgCH+vnat2xi7pbu1ex+MQNNah2dF4DsF+dKJswMbaBSFjkjixg1FgUvet0dmPe4HN1S2d6rYxDqt2i4x8csGuJIqUFnYLOrNpMxWo6hdStyoM4t1ukfMlk0DBndxOH24rCH+5vAhc5+MLmoiwcK0brvI6bVp5d0HHpddfSwK7RTt6i80REN39Cy0LBVTU2Mq1BIZPh3D6HEK5naXgjjrsfA7DN1Lkbtqhlm+yHQgS0GurMh9EaPpbt1lvvTSzYiQEqIOoxptV2Soxc70gatsKYjli9zcumG7pApUBrOBQSNoo7LhC+gRo7KRDIRDr3V4GhWTQI7ODrwQh/VXDs63THUCBrbjd6uH5/apDal/fB7OfPehZXmcNO7mMXQ0kL1pBqvjMevVAlA8A71Y/IkgrieXGqIx3WqXK+7Pnqx/mXMm0TlVKVzoQTG0iumJZgmQwoUNxihXcD83c2oL532NL6Xg92rN+CIwf9Oq+f2YjWlFk1wZfcGWzYlHD3vJa5SAnmAzOsnMWW5LDmVen6Bpw4ze9ZKXtHtCe1KngpEJschdDCSOLO63ap5BQpK62jVaTkwn04wmDL3e2rRyKHE9VtXzmPA+qsbZmrD9vbrbjvZtV9GJS8ClVcZPwu2qNWmVHpOd7kJDfR6qeqpW3h8RpK1RA6fI+yEYwyZ6rtX6f5m8rxjmFTG0XPL2/GT/y9D1YZh8yUu4EbAdtnTlcwuYpi3WtBKwaqGYnx5wPxQrkAzozxTj1QyYSyxV/SumT1vyUnURsLOvWGNSwEx8sZxawP6ZXdhu8vQ8WUs0jvJZ1x+L1JPvn4N81f15kE/f9fejrz9W5VuFVkDwaYO7up+xryBojBfQXu1+EJXHVgrjYwnc3BEUgwlYdL07YMyesHzW9aT7JTtlMsYXeRiZNibqs/Elcn44G2c9F2Rk4z9kiNe7oiI3p3XtN+f7MXdjJ+fva/5SRH8vW49JZLq1ZqSqTJ9mTS8J6UV345vweeJ9nasWbiTMdGQrMOB86pKX/ZOYnq1oPML0ADsLIoywvP7W15QRZ17y4v9zxcaSl9aVjPHvk13zJZ6i5zd+P6bzzFnLBDLGI5sdVFIuCIXmrOtT2F5l5Zst6P/npOUmhdcnWb6S3zcp/wYnKnLSooiCZUverlv5/BpL86P19Z283HcV7+tsJdtMR+cNzY2/b9CSP6Zfzc6Hdvr7sn8OM3iMr6nyfrbmtopp1mx80ZXvo4u/T3hvtk4erh3f8rrf0P4ETaZXzNbnoPEss5PkYLUovJ+D8VseZw7p85P/ueX1eQ773+QpXssXeCYlq67eF2dQXawntWhkI0A/nket4WL/5GK/oT00PjTuGLk8j/y9/Dx+53mnwo0re4L30YW9IjwtB61Er1jb8v+Ql9JHbsvIlj8qWHC376Mm8hR/5aj+Pxcw+Uy1gvH7uq+VjxrzTZstQ+UJT85Jy86Yznn7M+rvIeOCdSZk5hMxPJPLIpa8rH9muuWs75twIEnOmltn/Hz5w1HxcLS3xm/Gk57yBZ6M96/xhye+jwzvStiun6v6k9yDkQ1/S+wvWQt3RPwzW74y8nlvVsPC9rZZQp3tbbNSC/Zvm+MhxOCw8QFdH/R/uuPVOHOx25AtzF8sebHPAfN9ThIT+D4dah8Cn0fLvweOp2w+SODzOPW+CIz/WAFr4PvX6hMC4lfF/J+A+FgJjs9TvrIYW1/A8/4snn3KU/3JFX6L4w4u8GHyD6/wZ7I/V/j2Qd7wc5S/wOcP8ob/o/xFfoH84WL3S0D/oVi9B3cPXOVf6L7e+R09X2SvSlN/KWAnQLHem8D5QaPN4m660n09kYaoq391yE8Nxa8C4pnF5hkF7MUoU/GQQ77Pmgw4v1Av8h1Yz2B8/vHErJP1fsR8fdT14RK+mqwcFPdDNTwwYrxffcIqj8exepiI37darz63qVSjyYoYz1arpI5MO9RsZi3W+1VjaTzUV3Qtrj3UbxjhVcL7dNfP6N8n/61a90jC+sNm3blc9dqsvjkhnXCLVvnOVCbJnx/JVbJyB/H4CGegydj60qxFNeP5apY/yhjvN6PVzUeqF4vHSX7o+xbM17RhTV2435oxgjL9czf8sKD97zZfpmB83ZPjP5HqObN1H2I81W3+1IF/paj/xnh+r4oncFd3t3qYhvFm73q/cHtCH4p3MWFTt/x7x3qbbvaK6e1H0Kr7gR0fwyZkDrxPRzS2AqbWcCoBpoBIeh9NtFe7fl44Jk7MHUo2hfmaYfz5kR1oJ+6IXLEyjIwnsku2FLQTg32gYSx7MXKTQbMxwnwLj67ca5GvvaUgYcBhHvqw5vLnnOB3CpLYjUy2MAyJiAWhpmGdq7HwaNBpfUOVZwFYsic2rHacwapZGzdARpslzuM2ZjL8bmBAMI1gaylga1+2QfZMn7vJfayPjnw6J+5Ih579opfIoapmVqvSTgjLbR4Oa088NEBqHQvPUZ1eGFRPnataecSpummjVPddyzwcipV3LAZ/zmx4UUAqhK576dBuNLu99ET8bBrekHge4/QBvgfegW694hFTBJuHQ0p4Eh/RYTNtEwaNu7lcFDJ6qdNQ4Z1Xoe09NGzPB1M59Y7LRw4LcTRyPzX56yoN3q1TrfeTP/2dgvhiJXCftdGrb3bzA/+DZHMP/EBTaYw3gMrEHT5P9kCrIQHA5rBgdga5RTdLBk0QDUE9rDMRhzZ1TaxCmVPv3cpl8VtB0vyR6Rmm4mSVCxf3p5ZAr7Alc8qVwwVho+YrT+3xA/EkW3575GQ4K7Nuz2nTLA/sVGY2Gve3bMMk9WqJG96Hfod25NXQiLVixHHBitTYkg2roeNBQtOG2rfBTAXGy9cmfzhj3e6RX7rrXuoHnhnjAO6MVG0Or4/foXNpypOE+KHAZLXO3NEbs480TeZ0ju6nRX6d279nVXh3BCaAsHqBceBoqfodBiOw0xCiwSUt21sXqsDCW6PoeRjMbrsZTpMqUJXEpvow9kKk5Moa7q6IGTmLkuEszOA+LTG7uTHpBorqO2weDDL31uozeIbIil6l9vzJ5fFOQan3OVs/rBpgcnnC8OkYEfOzm+rju+YnDqPZmxH9n02SahSmVNI8zC7NA5rTbN5Awot9WFPvTHg/bMzLFGgvbVTNKH0pzzyy0UNzo8SwwoCNK5BCsrGIHLJv6g57JAqoh+WGZmEGlWhTewoTotj02snT7DfZp5FoYz7AJ6IxqtaNfG3bc2bw0GF5BVu2Nk23kWgjqXzXHNeJm9yazjYgRC/djMe4Ihy66dJtiCfdD73azLWKhbDd2Hgmdx70qv7S9g0OtPX2Djh61Ri2ZsXxlJt6316aqus3ub/x3NPF3tPFgALMFyVlhp0HAhYbiLzp2FghmgIZgW4laZNHOnc3Ag3JpnYS1OZvUBdFm8bgzjQ4zUfZNR4T7FN7Gn7pZvy5G41kBTUzHZ31PdbEJq0gl4mFA4eRs3s0iz0SsqtUrXaaTOnbzFnfCsw/o2aGE6KtKBH4acyPG4GO90PLdoA63g9PBOBFge6Hli5G/+Je8hmEg2mP4tVQKvrS4WIoFUGJFyOjBlfqzItfIHzpYuwV56adS2cOjBTruHgHMmQbr5qqQOV/e/yYz1xjPh0ddjHQ8tVmu3VgAqJa+nhySr76ZImBNSbVnfWJRR3V4unD6N89LM+mHNKlWNPFFFzcrT7wjyHgauHxYfRvtUrtwwDM6keUax3q1TBVnPrp9/Rhrui8GBOK9DFX4ylxNurVAEwktOkXQzwpnr4c4kmYwOWYULpQ9iBS2xoUHl+OOj0oqFc57+7KtUKxwG8yD9HVQFgqNC6Wld8K3zvUllpT9thc+w4EMhebUjKZ7fly9C+l8X248Evy6VrDhrl8g0b8Pg2fwvwNGt/7G+aAf4OG+PhHDed+OWsoO85Jw+Z6HzVsdPg3aCQzgtiUfTX/nKLMywnrSHtwNcMd+3x9bt5EL+JyDj3VbuRoUeZkqg1jit4KcLzT1XVHZQybC9esJnXjJmNDeub4rxX6xVh5SiQn4x86OAXJyNwPQ653g7v9AkFNm2HV3oGqpXYJtflaBJft2ii5jAYmw5PfLQNvr2S0MJMzns82iFe/nRSiNo7vUIIeyZjQDrOSk1E5TB5jEW2GyiGki9OOKI/9isNemgPf2DUfuecMwwGK3fyUjkYgGsHuxhNolapFaB0TmLFcoC4U+EbrITyM3I1e1NzQtm7qdlOgtpYYLfZo2PccwwWiTTdQ9MGTzIxjtSEbAafMnEUeTNrfbYB74bGtZmIKGrFmkwi5oLlqAdAzR/xGXp0MZlIrWqL3HOr3Rl7DV2brz1qwOpnpNVsOJWB2wIgyJhfPmYV/JoffyHs2m261qCVhuyKdToxCS7vkHeUlAzQYB42Kde2ifXx+QX0Gd84E9e9GQ/Ta0IzBdX/eqFIPf18KhAaP+w02aKDg+ljj/8i4/kGJ/gYzpxhx0ODOQyMqH8xkHfSSWfKUEAwaSg1mLg7qEI1wWE/B9TtjT9bo1Ad6Bkbc2rl814pGe0f/zOV5qtKVPPlOLs/Mbi5fDudX5XnkzJU82SuXTwjOu3w8nC+VDzg870qe7lOTbxOZlF1+YM7T5fvpfEmpa0Ns6kqemK3sfDVmLgs2WKScvpcMOuG6WLNXS57qma1xuyXE4y2f1Xj2tBGp7dZvvl+6yrM9lCRK5cDeBvE8W+PfyDeTp8q2oP5h7Yf9L1HPTm3hekpZf+XCiKiQd60YDpv/UwtWCERNrlfuDI/2vTKHVFY9nzhA0jKnykwHRqxRmZkras9DZf/cctiVmU18MBAz1xjRQZmYajVAsnDSMam/XQYmx5J1wvBY6mRtKjyWMSuWsttaMJ6S9VzyZN9sHnrh6vRszUgH5latjykHJuWLRiG6f634q2S8T4ue98ID7mw2XEk8eUIL30vkyR8a7xRu4zPUqPBkgqr+83NUwRt5HXJ7yCZrPJ4HM8sokUUenEDX85g7Iq5V480ln0DeiAc39R/KSyovt8Pfl/sic3FiUyg0c7tV01zkpppEebFXmbsguvqfmSeB2SCzZw7pjbw3mdJ91PV8ZWbGtPq8zJOTunWY8n031D7nQ+uATZ0O6G8bNJ44GTX0vCROywy1J4lTIDbTOnEx1VR8YzOPIH6rREaHybE2eKLzzHkbZNaQOShawLMhWkpmGFXzgfv6OTv0ocBDvGOwb1xxD0XLER3ol2O0cRvMZ7QUnKiAisGiEcBsz4K+Q9QS0gPFcDTK5s0BTN/BxiIfhtZFa67a3jItq4HRh7EzMdsYPebB2+N95TjzoLKloERpPOkrOhNzQAMcbZTJYTx1tNldm+mDQqaiCcrIVXzRnKI4eJWqRvWRCzyjk/EMNEt7GLXQm3T0o6Kz93R+pGYUjJ0/nHFkRa6Fj02bqyIzfUTnB2Larmg0XAfmmz12XLYGD6qNRqsRmck/DquJ4oRjNOrkWLDcbBPjGKEQpdTiMLqfwhiIXdI710ymclo5VMYOGq8hiDxwyHH/mLm8xCaQ7MnlXDghkey251TxYqmsyKTvm+O0qAJtjScp+UMhIni70R9TIHQvJZu+HrGH88mb+aJAhixZ+WXkUXV7clZSBUJYn6MLXhTIamwMwsjaEAMqVhGKnsMO+iWJjS5i8p44dGU2uaIkmdFn3YxMyq5HvlWyq2Ggl5GMHb+j35O6usSdC+qsn6Jz8dpQUL9jk4oXfTR+/mlJGD5lNu2Zy2g8KOFp7dlqfRu+bw7aUnmcjmXTxnDalRm6ihhKjro+9TjdRZ+HfNTsIDdPg0nOTkpGMds05sO0KJtefpbXaT+H5ym2Plyla9OicPpf0qKkytMYkroHh+lJF/I4reXieXC6yMX74rRViwQrFzFffC+cjpJ8/+O0yaRFKIfpXkf59Q+//fDHz3/+y0+//OMfv//x9cvfP7/+/5++fP38t69f/vnrj4//9PvPP/z2ef3b/wI=);lineShape=1;" parent="1" vertex="1">
          <mxGeometry x="490.2840030635716" y="1875.0999348670007" width="587.1801335654727" height="276.20005033507823" as="geometry" />
        </mxCell>
        <mxCell id="N3kcKBxll-6l0_vqil-b-35" value="&amp;lt;&amp;lt;Entity&amp;gt;&amp;gt;&lt;br&gt;&amp;lt;&amp;lt;Root&amp;gt;&amp;gt;&lt;br style=&quot;border-color: var(--border-color);&quot;&gt;Student " style="rounded=0;whiteSpace=wrap;html=1;" parent="1" vertex="1">
          <mxGeometry x="320" y="1874.34" width="120" height="60" as="geometry" />
        </mxCell>
        <mxCell id="N3kcKBxll-6l0_vqil-b-38" value="&amp;lt;&amp;lt;Value Object&amp;gt;&amp;gt;&lt;br&gt;Date of Birth" style="rounded=0;whiteSpace=wrap;html=1;" parent="1" vertex="1">
          <mxGeometry x="320" y="1969.72" width="120" height="60" as="geometry" />
        </mxCell>
        <mxCell id="N3kcKBxll-6l0_vqil-b-39" value="&amp;lt;&amp;lt;Value Object&amp;gt;&amp;gt;&lt;br&gt;Tax Payer Number" style="rounded=0;whiteSpace=wrap;html=1;" parent="1" vertex="1">
          <mxGeometry x="320" y="1775.24" width="120" height="60" as="geometry" />
        </mxCell>
        <mxCell id="N3kcKBxll-6l0_vqil-b-40" value="&amp;lt;&amp;lt;Value Object&amp;gt;&amp;gt;&lt;br&gt;Mechanographic Number" style="rounded=0;whiteSpace=wrap;html=1;" parent="1" vertex="1">
          <mxGeometry x="160" y="1872.76" width="120" height="60" as="geometry" />
        </mxCell>
        <mxCell id="N3kcKBxll-6l0_vqil-b-41" value="" style="endArrow=diamondThin;endFill=1;endSize=24;html=1;rounded=0;exitX=0.5;exitY=1;exitDx=0;exitDy=0;entryX=0.5;entryY=0;entryDx=0;entryDy=0;" parent="1" source="N3kcKBxll-6l0_vqil-b-39" target="N3kcKBxll-6l0_vqil-b-35" edge="1">
          <mxGeometry width="160" relative="1" as="geometry">
            <mxPoint x="660" y="1805.24" as="sourcePoint" />
            <mxPoint x="750" y="1717.24" as="targetPoint" />
          </mxGeometry>
        </mxCell>
        <mxCell id="N3kcKBxll-6l0_vqil-b-42" value="" style="endArrow=diamondThin;endFill=1;endSize=24;html=1;rounded=0;exitX=0.5;exitY=0;exitDx=0;exitDy=0;entryX=0.5;entryY=1;entryDx=0;entryDy=0;" parent="1" source="N3kcKBxll-6l0_vqil-b-38" target="N3kcKBxll-6l0_vqil-b-35" edge="1">
          <mxGeometry width="160" relative="1" as="geometry">
            <mxPoint x="670" y="1815.24" as="sourcePoint" />
            <mxPoint x="760" y="1727.24" as="targetPoint" />
          </mxGeometry>
        </mxCell>
        <mxCell id="N3kcKBxll-6l0_vqil-b-43" value="" style="endArrow=diamondThin;endFill=1;endSize=24;html=1;rounded=0;exitX=1;exitY=0.5;exitDx=0;exitDy=0;entryX=0;entryY=0.5;entryDx=0;entryDy=0;" parent="1" source="N3kcKBxll-6l0_vqil-b-40" target="N3kcKBxll-6l0_vqil-b-35" edge="1">
          <mxGeometry width="160" relative="1" as="geometry">
            <mxPoint x="540" y="1912.24" as="sourcePoint" />
            <mxPoint x="310" y="1932.24" as="targetPoint" />
          </mxGeometry>
        </mxCell>
        <mxCell id="N3kcKBxll-6l0_vqil-b-47" value="has" style="endArrow=classic;html=1;rounded=0;entryX=1.033;entryY=0.617;entryDx=0;entryDy=0;exitX=0;exitY=0.5;exitDx=0;exitDy=0;entryPerimeter=0;" parent="1" source="N3kcKBxll-6l0_vqil-b-22" target="N3kcKBxll-6l0_vqil-b-35" edge="1">
          <mxGeometry x="-0.1258" y="13" width="50" height="50" relative="1" as="geometry">
            <mxPoint x="760" y="1766" as="sourcePoint" />
            <mxPoint x="760" y="1936" as="targetPoint" />
            <mxPoint as="offset" />
          </mxGeometry>
        </mxCell>
        <mxCell id="N3kcKBxll-6l0_vqil-b-49" value="" style="shape=stencil(lZ3ZsiQ3ckS/pl/LsC/PI+k/aMbmkDYUm9bkaPl7AeLU0u5ZB33fuITfykQCgVg9PuW//fHzD79//pTCH39+/fKPz//9y49//vwp/9unlH757efPX3/5c/3Tp/zvn/Lffvry9fPfv375528//vXvv/+wJfc//eeX/9p/4X/+wtV8K3OjUvjfv/5LvOX2///hP/6S//WX317l021WlS8oX9rH5GNW+Qry8dbTR54/3tL4iHy4Dfv79Dzh/ue+T77M2wwfky/xA+tZxm3aerJ8KR+R7xf7gZ6/30pX+YHyQde/ZJBvt6rr/68N/k4+6P6vHeTrren6N5aP+n07PU+5VX2eSe9bbuHb/Zzu/+FaPt9qFPkE+7+s867yuP7rz02R/9eCXcuv5asiPwLIh9vUvz/pfdd5/Hb98y3C++Z5q0PkST/kcRtF5Cvs/yUf9Xk6rGfuqk/ybSaQb7f27Xkvtwjrn+ttDJFPsD+XfKwiX2D9c1F9UvC85LUc+vcHrX++hW/l6y2QfLqrp6d8oud5HO+nfIX9ueRDFPlO32vtT/37E/ZPmnrftVuC51nyoh/ardDfH/fj/ZTvsH9Sv3X9+xPWc8nL/um3RM+z9HkW+Qr30Vq+MUV+0N+vd/V3l18HFPb/3r4qj8+z9HMX+Unfy/Tz5PVJ9+V+ypO+3eq7ijx+r2j2w9qxoLD2fZsUQCc+hbtCewDWGaJfCGZSsg23AHImF6DDR4jzrsMfgISPtAB6y6f7ub4GDFUrC0DnbAGSADIquthVsS9AAU20AOoJLF3MvyCqJZb7MlwD1t00FUDKaAFyUgBZB7GaNbruKzie63/XrgDS7/vvNQUM+oVy6/ILDTXMAuShAFIx6zNNA5CNELNt7363kt4BYlRAo3dItr3H3c5+B0hVAWS3rxMsdtcCDAbIxbYObQLLZWuhpIBGgKXnvn2krXhICQR96a3a4DxMPdJLfoBaWmrs2zdYyjnBxpj3s/Ii30B+3F2Zh3y6a9o38nL37NsI9t3QWMDBOVgqT3yVtXHhiz1MiRd5OmlddfA2xuF9+/3SeMgXdLaaxhq2tQHv29RXXPJ0mTfVLMv6yfB9m+q6bczC85j23X8B5cWWfVp7b+TlhtrGJpz5auero7NS9cQvefr7RW3fgzFY7DxOdM6K+dIT17/cLYKHr7hsNXL+zHddthg5Txr7yKwfluv87fPnxM7l/bS+yKNxen/ah3y+RxPeyHd534JWWlLfI1fcz0nNlcy2QdJrdXnvFHyKainnw71t7zvu3vIbebELdnSDDIm79n7IP6Inb+Ql9lp4f8Zb/FbfFvYMou7/JU8WbFDfqTyi1W/kxbcs+e7NvpOPKk/7Iej32tFAeN+g9nRZGg/WM1hsaO1P2G9BY2E7ugr7Lej+Kcvbh/0TVB8u+Y7rKb5xGRhsvpInwzjc3+4hP9EIDffb5BG7YYMvqP2z5MmiDOpK14jnJai+XfKkzy1XUTlY+/D8H/IZTejH6X6Rp2Bt0PuuFnQzXL7eV+A75dk+CaqvakN96PIcrHL5gfbhlTx/X5WfeD+afONYz5U82UsuHz/4PGw/2Pdd8uMj+63le3bq3X7+Vj+0gjGYK/mG66nyJ33u8rw/Vb5hMsfOb+sH/ZaLyrM+F33VxuF5RH+2idGdoPbbkuf7V+7HHg7nV+7rHg/fazSVJ//dcl093bO/7+ylrPKkH6LGvnvmoIvae0ueznu02H3B8xXvt+GLPCU/o/rLvXLUVe29zufF7PPe8L6zINaSp+ResvXsmJxMal8teQz2q33YB57fdN+NL/IV/76uJ99H+W4NPuQn3tdZ9f+Sp++VNcQ3Asa7ssZPljz7s5KbHHzfZfXXxqGYQmsRRsTkYdH1GYfkv9ZeLHk6j0XP4zgk57WWZbB/VFVfjYz7raq9uuTJf6n2fdeKYXxJ9v+Srxiv09xeQf/C0hmjYnKvaXJiyXM8UOI5S570Z9fzOBraV139kSVP56Xftd+LPK3P0Fz+6Pi9hubOlzz5p+OeYnuR73Aep8YTxnpC+PvT9A/b81PvryVP8cmdMIgKwKxh0IjdAlB5wTP1+gBMDKHvtMpQANoo6xIuCqD8cLRbcgEwvZXUzJoB1VDM6tcuAL5D1sTHApAjE4tmDhaAygCihZbnIxh2Daj2C1wotwD+C5jTa+oNLADuJVNHM2Gtys5ABwXgO3QNAC9AI4N3qEW6AJg1tMT+zJzjnnpnzsz1EkGN8AWgoJ9HFReArIRdYdkVQGmrbSfLL3BifxuyUwEUmF6Wkdyckz2DnXoYCmhcd5PskajwchsvRQF0eS5rQbzFWdH62td/UQCZpzt/WBWAe8ku3AWgmo+dkU0KQIt/qok6K7sg09RMxSsrW3XPAgwCRM1aLwDp1mylA7PhtZ6T2mGT44Y5a5Hh5Cq9XOwd2NNcAAkNLACFwncmyh6Jcu+5aXJ2A8i563fb9AWApZLDvnRDcztPtZ8n258lXCwrBdx3dXFWQCcPyUIWC0Ahx5K0fn8+KtyvAVZ7MzlIsHNMQQFk1ZdiJYEdtUappgT6qWhe9VLHwEhp6uktAHl6CyA1UHNgKUrp6hsuAMUSy6Mu9AVAR3QBVPMNtCrL1PKMBajwHXa2KSiAzkO1AOcCkOmwu2W6AiiCWi1FPdnhqEn7NebEHO9OORUFYJFJtjM90ZSuxRTZvP/mNaBqHGYDqC6lmt068WKvTf24DaBHslKlDaCX7mbzTbwf6tDk7ZxorNdpimzihVIfxS6vAFjWFi5emkzpZs1dG0ABn6gZiw2gR4paEjW5Pruli2VFQDZlfAQ023ykNVrRqMMZ0P2lCWBF+Kd3qFe/QIB29Q4USmtawXoCWDDttDW6WZUHwNAy9snlNs0NrCPAVSUC/Mo6AtT2ZkC3HO0ZoLbGAWBVRhsAqnIB/H5AQLr6cKBmdprvQ3ppAS6WlQCWWjkD1B04AIo2+mwAFdcWrTaaE82fXi+Wle6HBVBDl2+g7k4TX4o7P2gAuqf7w4F5NR1oLzXr95noWvZuTtPEaOjOKdovkIHVu/miE8si+rBI4kQHfAGkSXRyonHnIc1upZhAn3Ye2NDt88J/IE+xW6P3BlCy4pG7/E7rfgHUlOb07QKMD3koI9632guACtKGVQBsp4kBGrvnxpGRTHt3dDieKc9X15K+QzI/rmMVz/DgZkc1Mzxc1FEJLID6cVyYM7JZ9w3bIkfRUuzZ+KWL5oEO8aUF6Bb9objGWOre43y0l6ota8UszaimZrieZKdXLRpKqnJYBngWrGjYCdaqALpFR7NHKui8jm7JL+4wXwD1HzJaxgugsZmMadExLFCeMBQ/rJtyJuzCH9NMh4QxgTEthxLvauEdQHLNM2KtywwW7I+cbLbO8RnQB1r/W/3pgKbD8wHugP1W9A5RCwzHRHaPBRCbbwzs+FgAscjGQBd/Gp/MzuHTI1mAdrC6n+miqoAMrL2ZpSylYeZ1H5euALpFZ9bGtlEx3jotZrwrU6gywlqNtj5ngNa+FO5FLFb8knmViuZFd/URPVK1d0jox81q7xCxnn0n04YCqFN9VqvgCfzhmvZgLwDdQNNuoM4+0LQipGVcUz5uWxZBAXSxb9tFyiw72q3bOrK6TEq6LICE7Z6O2juAHKDOpsM2CYcCqNVqJ0DkkTgDvq1UAeTTS8u1uwBkrM+hdmtPWL79zJi8AOgW3ca/bL6IIa/tXsheCnzihgakekATblpPcpvox02LezdOJ2yAdDEMDEhtN0/K1rkNdZr5swAUit8AKbxvmF57poleAIe9JKXxz5DtW0BXwGFZlXiGm6Wndavv7g1+B7lQdnsI/4LUj7aERuIGNAWgqhyqBFpEQ3eHPeQduMV3Wgh49wDxO0guq070pzfAupLQmhlqL9XByniq3Vq57v0C0DGSeAFoGF+6BOABcgATSV0C0Ax1AFc7XwC4ne8SQPGlC0DCKNwlIH3skSKWI10CqKd1mmtZA3soU0tuNyfk4cM1BaBraRxgZTBvyNRc1gKgvTStU7tjIeYOWicFHI6o+EClYa30DrxL8y+XhT0j9S8ASspPiwmUwqbDVDN0AYgK6JlteAAy+6LGDloyhk8vfiGxcXIFQH/aAfH4C1EBlE6YVnZfAl+KU22+BTj9wrdf+kB0sDNXxoyAbplR9eRx+tLioWSuX3rmKB+A4xFVJsx+2q0KYO7ASwDFvS8AXBt6CaAyyQtAYS/rCoC2t38HbqK8BBzuaQccLAEFJA7mXAHSx94hIq3nM7n8AkBqrCsA1ZFdAA7h0ysAtcY44Ene+RZQFXA6D0IwNTCtswFRAQeLTDTfpkQ63EBZAVRM6rfoJnU6XLtBAYV3q4SLNlEVfzjlHeOq+G1gVQXg5jOnKRUOPY67f/4CQHVv/vSze/U7gwiJG1d2XEMACfNxc2iKcPeNfCiYs/nl+KWVoI0JquYwhrPIZ3poEvJJAvA2CpcUgKrSAoNxsrFu+bjIpZ47uPntI0WmxdnhU2NzRPf40bb5AsDz0I0/tXNg0MpgIlfF76i0PFJDbqhd+B8UgIEQC5THyhd7M6r9yjafdeDFyv2lTbP4kXuadjqhKACDatXGFxR2wKum/Td9Kekla7NaADzTxhIYD4qsquO3qXUZIK0Am7yXAbqsiS/FYuS9jzzmO4BUPcbIlkAxOtSILXvTWlhj5PBpMdLYwO5ANvLewKZ0toIn3t3e54s9hEte4iaTnYdknTfsfCf1Eplub1qt02BHIFpGlK8eo+4+5B2M676zfRsslcipx2B8IZgy3o3kEk5HO29MLWfjK2F4UgPX/9n9/5Sn/TO67p+Gftuwe5nt2tE0ts/e85IXTXqon7Lbg83mYelxds6XvGiUivUroyghc+VawqLWYOH1zFqcVbiozvhvCleAWt8pB+iH1ZlzKGIYJTbP/tj1ojrLAyv2grZqccKtTy2GZnqXbrF5nqXSh0YW2ZLoXduDmB5ryct5z2iI96aVQxmLbrqZc8xFsGsWxLtBfd5ttguTI/Tis3uoPKxbl3PCip5uZa4JnYJurVCJv5edL6ZX230c+r5Y3G/Vz4lr+418JWFi9MlO95SnlHm3EsOE9NPNYpsJczTNOvzYXW9D9XPE/bnkxf7h2Vit27wJ1CdLXuwBrvFs1iLPDCrNukPiqctt6PNQXqNV89O5X7L4bDjySpb8h2YF7voKmw1HLXR23iPTY2Xzw9AeaEm7BiPG0Ja8+tu8/6N5bXjfNeNOCkzfH1W/Bd7/Qe8XJh1qxt8ZMPdRpxZmBKZjm3rej/IS6T3IW1T1KO/PQ+9rdelH+WDPQ23hNkvr8Pe7Ni3xOJBqhEwB9duSF3+Qi1GXfFB50oe1qr13lE+6H1C+aCg18PiKovrzIJ99v1GAo1pZ9lFe8hAH+eTn5SCfVD/gelotfcD4SU1aUMp5+ZrU/uFxOFte989htmzQ9U9w32153T8UhNvrU0WeaoD3+uvz0H2xv6+uD3WIVGsjDkytYTReXEtejY82YIFATWpPBrQHruTJPr96HuRPuXhfsseu1pPYhK6+1+k8mn7g9bH9RhUdV/uZqliuzgvZk5fnke7fi/NO6YwrfULxhyt9RfbblT4kaqYrfXs4jx+Tz25vHOS76R++76KuJ+of69A/yFeNzxzly4fW3/h6D/qtaQqDy76qzSs86P+u/m9A/31Ph1D7IX3QnsT77sJexdnlF/Ywzka/sLdR/sKeR/0wNb7EpejN+LAC1sU266Dk+6UZ3z/bJy1qvJf1567lV3mkLzKyLdbnzWYfM2ttSxf2M5zH5Y8nu+/oeYyJKGC1dzN+dPanWtH4G/c+tGJFBah/WtXS1oj5hWbdfczp25py30SMD7dmuXUe79fV3oi8/7vHu3A/D4+nIbuWD8Vl2iir04poj7WpxD1Mr7/jpRrPQYoPI+Dg8R7d5pVF9Pd79L9PpRM96fPzeM4lL+uTcD93808P8edsJWZo73UjoUh4v/Si9zWPc+tWx5GY0qhqSVBC5vLdZKrrQ/qw2/nlgrpN7aP5I4q3965FhJm/l/VGZh4PMNVf4HafPnU/8PjVYVxgGc/7sHl9Gc/jsHhsxvti51s1X3zgqtH5e1zPYPMwC+7/JS/x3sLjEIzYr6D/O4ru/4L+7KjWFcTrb/lKHmc7mtpXFe3zJW/1BmRvj67+bMVC49GVb68yYVPX4rnKTERD7TfmrR5D7Q2ePD6sZaqh/TyM27txsaDNu25c2Wr5i85tOsbkx+NRZ1RW1c71VFZf0fn5k/Z7MZfVtPwUj7f0+jQmCJs2j5dJ0aYzhTJfjLNMcZlwUfvh0HpfdP/HQ9+WDVyOBzYAm3gUOaQ2i5UVBy5nLdr9HCPOuJlGLhw5Kz2N5TBymn9WM4sP1alG5x0TV3ZWvYh3hS39gtchZz4KzUoD2DbYtdRWuIx0S82WtZweSevBeZrpRcV55XYHr2mv3M3TNGCzp8BwIb96QI1ZGYyaJXKN5O4tKArA5pyuHUl7bAyzxYiWXwAsje4a5omHulm7xxcA68GtiyQeNKtXvkzWS0ackgK3rQ/r2wqnjiTtbuNoyW4wMgC29BnDx/Z3D/wb1i9EAdJpNKHbQztQIFiT1KEHMBoAbaSpNYTbqaBltbb1VE6dksUA2P5jvcmpMg+KxVm2YcvLqo47V0rPad1tzGc5jXd624b8SHJlJZ5AsQAyP+g5nu4toCkAy/+nmg7bHqMBXMEC4ocO1AvEocn1GkFe5BWCW3WvEbTHrxGHLSi1TOeWZgccmqYVcGzLdsCh8dsBh9Zy2VHn5nUHHNrjFXBswHfAocVfAUcSAVH6z1FH3wvoTFhkJzt3tvymFmJuMofDsgYFHMgcNPQ3uaFsKtFm5gkL04ZZblINfmnJLhVOX7nS38QgB0BVwOkXBHAkNxFT8UyfIq7TmaDFAdi0ZsSzpZx2q1y+hSflTWuzKsczrXFPnks7jVy9NKzkcTaU0tnnnVr6swBUa3PBGcPjny5obI7cDNLtXniS6gYYDxSS506tR6o8337awLUz+ZUDDhQwCjgSeDngQBGmgCMJmQMOdBEKOBKpKeBI1SaB2TMZnAKOdHMOOLFlCeBImaeAIymfA06cYtKuyHO7nFOs8nz5OTVh3rhixKlH2oG/dGpKcheF8CpJz+KmkDz8QlEA8jUaGVw7HiApgzoRbdqQ3caJqGlTSBt3grrfvulID4yQskrtRAYnuYFNqcqkrWJVtkM3tDNzjhMbith87cAp5oSnk2PT3hB9OEDDaJIDh5qHhhJ20QS/tAQr9rgmjjJJOKQn1hpDr909fYnfQdRMz8zXaKw0/cCRYYWBe5gShzglWNEPN5DTVR/4fLvWEvZ2YqURA6t3Dsh3zSb2zpZx1zPdD3Hdpueh8zDL5/zaB4CHxjkb+whMtHnF944OeFW37DmT5x1A3mGP2GEafbmnx4E23Hn3M9apeZJtHKjPrVB5HOIaV9MJDmk8fYfK2vtqwgISMWdVZKNxXNcGo44DkVrSG2gXMNBuTVqvsxkreJaGJpwHB+STmg5jnCaO6NY42HzRRmMcMinR5s0eks4+Q5rLfvfYFpvLgkRqPueUG2uHxZf29BoG6HSzxIONzDKe3Hs/jJh8MtnAsHzT5Gq0YcMGJtM9DJuwMNnxG1a/v/UIFUR1e6SCV9ZoNqGtcEla0xaoXT/AnC36SJWL8Izxax5YZKrtpcZ7qWrucjaue/NBkDwXfhQbzsQDRPb1IavU+R2M6mJ29B/2jWYz4HCEVbYv3dGlGdmG7PZTeaNOqR5cX2f1jdtWpu9gDfZPjshrQLwY845j6eLVxHNa1njxSEjqE2zg2rgb1+8APn+Z2kQXwMdlUt9bt4TF5ERht4juM/jyDqAT2phzcpcGJwWQRdZtRMkGUPG0uWXPvPU7gD8SjvHtF/PIybrv/eKRaLduj8dmFx8qzH1WK1IgWUvJnFyTbqVbz1T6O4DO15zMIlQvXprqEbZva4+EfRDW5/hMGl4DbNjxS0L5HSJp4eABYSObvwNRPvhUVrB6RFzNtkbOqKvp2Qi4ms99APiWpa93OWP8APAp5gi4mpN+APgk9gPAZ1sj4GqaPJLJXM2rR8CVrsF2uqbB7xOgavr1cLBbNZPmAChXv8AthxfvQACvmT4Cgm9vZiWq/uEIEJVX9Vlv8A6gk0VZI7eggbKDzm/h4sORlVUtST050lwtpzB5dmkdSo2/AdTNbFWfh7u3Gj3gBlB/ftPK1YM5UKuGdefE4He9OkBIgWFTOQ9GU/WegIlNSQuQPmQpbtYPt0XpwxlN1+QxC9VDQDzyr3pEh038YhVDkyPNxQ1wnldfhl27XKO8AEIu8szFXAO6OaQDJ1qWZrt1oI9cjP98Dkz7larppp0poWX1GeMd0+ClaJXH9sLpF7KNPe944srlNHmwBEoy7d2xPKdEmzHeeVmDnemORUzFiJyfM18vAdly/7t1Ad4hW6vq5PRr7hdRKWrmykbWuvs16Bes238D6BesNWiHseBLL4Aua8O9lLONn2+YDMrGqLTbYAhglOOT8+YLEA1AOecctFFhhxMBkKyobyfRGCC5nVnRwNozdDwkSgCPJHA2NdmI5Fkxa5GsvekQ1k0epeUi/93LawAKMu1m56IAqtF7sjN/Z/B7t79HBdARTeZRTy482QQNRQFUv/BkPH0BJAIE262Fd2vQiqGZ0ZSO06xKriiNHrvL+NLRlXHGEtTYzSJL6O0ugCoyzjlHo1bYwxfokdx5ZfLm6LZGwlBLtO74nZSj71DMAWf+lehxL+413T2Tspe4XC26sR74O1iL8x4KQauUNLA2mSQr+g0UsGJozz2RrmseYByDOn6Dp0HuMSZdAeShPNuaXwBYrW+J+cEZZC2dGYOZNLSSbMmTBrAirDF4UoAWPG1qBMo/WFFLZyZ/G7TSMTHVL56HzrI14o7GzFpqVo3GzNia8D8UjxgR76bWILdetePgwVLVvi+3EFZ7fq6QtpTApiohj8SKazJ7wxrFWPLoU6m3/Rzl8UZeDPNDSVTWePJImE7L6swPZs63QUmDmeezBsSXPFktRvw2mMnNfNolT8wqSYnuBjNDJu0U6hMnRyQjAplY85ZUoT/TlW/kZf90nqedlDitd7ySbDBFZ5c/6g3Wudo/2nryyM1oxZ88Ci+qfl7y5JdagHonEekG1v3Zeaxd1OBxL+iqBPXcO3d5By322KNLQB9azqwntJqC7eeI92lQ4qslT0ZWsBLocHhf0f9t4n4LSnzVOOAarONgYDWm2VeNa2eC3qet436z7uPGYROXr5jduJInB8vlCxYiBGtmKIf9qfIZQ78un7D+ytefm7NdnpsAXD6gvrqSpyiXyVfOy7j8QHvvSp7sN5fvGB1y+XbanyZP5XIuX7FDIqh9WJlaJ9hguoy5btMPOyvF8kIsx5OqTF/ViBHGoERZOyXFf//b+6UyjVXQQEHlGueg9knh4qygYYLCE4eD3teF68aNWG538+J5lKBC4XLOoOGm0g76TeyTUjG5YDHtJU9NfMG6lwtGgoL6mzsNhfLasM2T5oyor/AktaD+WuF6dEs4FZ6UFFWflIBdAVHPS+YktUV1MydTo36v3DGdFTWWmDkjF43dgXtFjBg4cz9xMuJVnoxpg22XPN1HyQYhZrT/k/FlcBN41mrsJU/xqKz2bY6o37L2G+WA96M1A2WeZFF0P6eJ93VRfZhY39pgt8T61urnE9vPxbiROvq/Fhrfk3lp0oEm4HbEDONLkllKbG9X9dcSE+1Zl94zovVGXtnaChb6NBssyY0nzeiyuKHU6pBPk1Lt+TMXnBtB2GHSqMZ/UsLa7mH7n8enW5fxjnigvFJ3Re5rU+KNdGAJtfMVMF4azQB9mnTvAMqieEx6jKYAOgKb1tR+gWo+ol16kelso40zigOjlDFpiV/seOwXQCfSc4dktMBp5EKXaDdB5NalaAWpO1N5yBoaqyj52tGm9sSKhy1W7fKMFXmmY1V1tB6Sru9NOloUgPaZKcidC+X8sI5CzXweuh7pyCGP6MMzMuqktZkliRB5fMACSCHk5vHlX9B5JzzwYR95eaRDynraRFQeMZKCLStzfLkrEQM+ktvukacEbePaAJRQTjb2bWJydd99khPH5GS6ovHmshi5rbiQMxXLTqKG2daaRIPxMk821pg7HVMzhg6sYtjWi0SbuXzLqrEa11Zd0PBjpZSNqW+cXLKxV6ywc9AdXbGeZ8mLNc7GbLaeIA5OZPMWuWwrJ+2gLHiCs1WpFHSGlu+pxGqYHFu+sGR/+O7INoaOg4vZxlBwMCZfjHmh85uNDYb5mvJQbpfMFZjGB5zRuSkWnWNnvRiBQsJg+SZ1tLE/XCBtY3kSy6v3h8Gwko0pHtttSrEuPdz/xcaaMavlLmrX5yGzYMlXlafilNL875P5V9w44/XsZpDi/VtsDEvE4p1iZEgcXCzGGMXOXLFuwYD3UTHmyKO8ZPNZvlr2lsfI16DVVgf56GPJD/Ld/j7YP1djXfHvJ90Ph/Uxr+8gn32MMD7PxRjwk7yOqaT9tuSb7R8aK5q1WoOJ/Ku1OEYeq2tj35hE9FL+8Pf1edLh7+v7YrDQ1pP1oX+viMlh3w+Rx7Tafovc73aUX//w+w9//vzXv/z0y6+//vHn1y//+Pz6/3/68vXz379++edvPz7+0x8///D75/Vv/wc=);lineShape=1;" parent="1" vertex="1">
          <mxGeometry x="121.81478375965821" y="1744.1177746757196" width="385.4291807753716" height="304.95221434859127" as="geometry" />
        </mxCell>
        <mxCell id="N3kcKBxll-6l0_vqil-b-50" value="1" style="text;html=1;strokeColor=none;fillColor=none;align=center;verticalAlign=middle;whiteSpace=wrap;rounded=0;fontSize=10;" parent="1" vertex="1">
          <mxGeometry x="669.96" y="1959.9999999999998" width="20" height="16" as="geometry" />
        </mxCell>
        <mxCell id="N3kcKBxll-6l0_vqil-b-51" value="1..*" style="text;html=1;strokeColor=none;fillColor=none;align=center;verticalAlign=middle;whiteSpace=wrap;rounded=0;fontSize=10;" parent="1" vertex="1">
          <mxGeometry x="450.00000000000006" y="1878.48" width="20" height="16" as="geometry" />
        </mxCell>
        <mxCell id="E-R5BdopuUIVvVxe6unr-1" value="&amp;lt;&amp;lt;Value Object&amp;gt;&amp;gt;&lt;br&gt;Date of Birth" style="rounded=0;whiteSpace=wrap;html=1;" vertex="1" parent="1">
          <mxGeometry x="1120.9999999999998" y="2010" width="120" height="60" as="geometry" />
        </mxCell>
        <mxCell id="E-R5BdopuUIVvVxe6unr-2" value="&amp;lt;&amp;lt;Value Object&amp;gt;&amp;gt;&lt;br&gt;Tax Payer Number" style="rounded=0;whiteSpace=wrap;html=1;" vertex="1" parent="1">
          <mxGeometry x="1110" y="1806.48" width="120" height="60" as="geometry" />
        </mxCell>
        <mxCell id="E-R5BdopuUIVvVxe6unr-3" value="&amp;lt;&amp;lt;Entity&amp;gt;&amp;gt;&lt;br&gt;&amp;lt;&amp;lt;Root&amp;gt;&amp;gt;&lt;br style=&quot;border-color: var(--border-color);&quot;&gt;Teacher" style="rounded=0;whiteSpace=wrap;html=1;" vertex="1" parent="1">
          <mxGeometry x="1110" y="1906" width="120" height="60" as="geometry" />
        </mxCell>
        <mxCell id="E-R5BdopuUIVvVxe6unr-4" value="" style="endArrow=diamondThin;endFill=1;endSize=24;html=1;rounded=0;exitX=0.5;exitY=1;exitDx=0;exitDy=0;entryX=0.5;entryY=0;entryDx=0;entryDy=0;" edge="1" parent="1" source="E-R5BdopuUIVvVxe6unr-2" target="E-R5BdopuUIVvVxe6unr-3">
          <mxGeometry width="160" relative="1" as="geometry">
            <mxPoint x="1301.32" y="1590.46" as="sourcePoint" />
            <mxPoint x="1411.32" y="1660.46" as="targetPoint" />
          </mxGeometry>
        </mxCell>
        <mxCell id="E-R5BdopuUIVvVxe6unr-5" value="" style="endArrow=diamondThin;endFill=1;endSize=24;html=1;rounded=0;exitX=0.5;exitY=0;exitDx=0;exitDy=0;entryX=0.5;entryY=1;entryDx=0;entryDy=0;" edge="1" parent="1" source="E-R5BdopuUIVvVxe6unr-1" target="E-R5BdopuUIVvVxe6unr-3">
          <mxGeometry width="160" relative="1" as="geometry">
            <mxPoint x="1291.32" y="1883.46" as="sourcePoint" />
            <mxPoint x="1381.32" y="1795.46" as="targetPoint" />
          </mxGeometry>
        </mxCell>
        <mxCell id="E-R5BdopuUIVvVxe6unr-9" value="&amp;lt;&amp;lt;Value Object&amp;gt;&amp;gt;&lt;br&gt;Acronym&amp;nbsp;" style="rounded=0;whiteSpace=wrap;html=1;" vertex="1" parent="1">
          <mxGeometry x="1260" y="1950" width="120" height="60" as="geometry" />
        </mxCell>
        <mxCell id="E-R5BdopuUIVvVxe6unr-13" value="" style="endArrow=diamondThin;endFill=1;endSize=24;html=1;rounded=0;exitX=0.5;exitY=0;exitDx=0;exitDy=0;entryX=1;entryY=0.5;entryDx=0;entryDy=0;" edge="1" parent="1" source="E-R5BdopuUIVvVxe6unr-9" target="E-R5BdopuUIVvVxe6unr-3">
          <mxGeometry width="160" relative="1" as="geometry">
            <mxPoint x="1170" y="1860" as="sourcePoint" />
            <mxPoint x="1170" y="1904" as="targetPoint" />
          </mxGeometry>
        </mxCell>
        <mxCell id="E-R5BdopuUIVvVxe6unr-15" value="created by" style="endArrow=classic;html=1;rounded=0;exitX=1;exitY=0.25;exitDx=0;exitDy=0;entryX=0;entryY=0.25;entryDx=0;entryDy=0;" edge="1" parent="1" source="N3kcKBxll-6l0_vqil-b-22" target="E-R5BdopuUIVvVxe6unr-3">
          <mxGeometry x="-0.1585" y="18" width="50" height="50" relative="1" as="geometry">
            <mxPoint x="933" y="2246" as="sourcePoint" />
            <mxPoint x="610" y="1772" as="targetPoint" />
            <mxPoint as="offset" />
          </mxGeometry>
        </mxCell>
        <mxCell id="E-R5BdopuUIVvVxe6unr-16" value="1..*" style="text;html=1;strokeColor=none;fillColor=none;align=center;verticalAlign=middle;whiteSpace=wrap;rounded=0;fontSize=10;" vertex="1" parent="1">
          <mxGeometry x="820" y="1918.34" width="20" height="16" as="geometry" />
        </mxCell>
        <mxCell id="E-R5BdopuUIVvVxe6unr-17" value="1" style="text;html=1;strokeColor=none;fillColor=none;align=center;verticalAlign=middle;whiteSpace=wrap;rounded=0;fontSize=10;" vertex="1" parent="1">
          <mxGeometry x="1080" y="1900.4799999999998" width="20" height="16" as="geometry" />
        </mxCell>
        <mxCell id="E-R5BdopuUIVvVxe6unr-19" value="" style="shape=stencil(lZ3ZkmQ3ckS/hq9p2JfnkeY/aMaeIW1GbFqTo+XvBYjKpdxvHnS9cYnIugsuEOHh4fFD/svvP//425cfUvj9j29f//Hlv3756Y+ff8j/9kNKv/z685dvv/yx/umH/O8/5L/87eu3L3//9vVfv/7057//9uO23P/0H1//c//Cf//pF9ut9+2Vwv/8+V/yraT/+w9//dP+n7/8+tG+BLFvEe1DEvuRwb7e2kf7cgv0+/WWptjHgfYhiH2uYF9urYl9peezfq6Lfafrz7ep1z8m2teP9uuGGtr//+N42qcC9un+ep72ha4/3ara43pIt9TEftDzjLf58XmuBUXXH29N7ROth3jLSewrrYdwm1XsB9vLeu63SO8r3HIU+9LRPqh9h+uZ99V4Nx+3AJ/jvJUm5vS1zFtMYt7h5Q5da8sf1s641SLmNZB5UvMBT7Lrh7gebYQvsevGuezpcvp9Xb3Yd/x92djWUk3wdPotDLWvsNKaPvxlTztP041wf8pwv+ugKGrP15OS2k+433aLHzfytdXR81n7zFD7BjtJvXX7/QnPp97PhYf9OgrgfustZ7WnL7fqRr6PMtjZiq3ntZOj/ehqP+D6y/3Tfti3+1b6xr42taf1X+7nzsN+fRHwfIqtn/WF4vUHuZ6Bv7/eflD7DlvninPEfuJ+slbjUHtan1mfZwq4la+4bqo9nexZA71lT/tnvuWP33ta+xXap6r2/Dzjx+8lpVuE57N2j6H2FX4/3Vf7i/2E9Zzuq+thn/FsTPe3+WJPzzPZ+137CXy/6Vaq2tP+mTTw2TsSXo++r7VD4vVEud+1w+PzD13tG0WGtynPp99PhDf2ct49T+Q39hIpHUKlqIH5M155Zy+/P++p0ht7OU93+MP2H+83h3vq884+qD19L/G+2h/28RbweUo8s+wrRba6n+eE513U9bbsG96vrLecMfqMGmgve1qflijkct/B3tlntafrd/uK139lf7h+sW+fvP6G55fbc2YUNH5b9h2fz5D1M+4r6o297OfLvuP1S3yYJ8YPQc/3ZU/nndmXgPvnlT1fv9qvLxqfpyTWy57OL7d/nFDfaZ9xP7yyp/3E7cthvSnwUzBedft634G/077h/nllz9+X2nfMj67sx6fsxx0seGdf1X7wehP7ifHelf3nrmd+7npquEV+X2ZP+Zc9z2V/eP4CBMbD/tyH2vP+MD6epzUh0hgUqFv2DeMBwStqxv3Zzvea8X3F+9t52HP87Pb1EC+5fcZ4T6+/4vkV77vTw76d4p+h9rT+4x29ebGn/dzisdrxvIgG9HZGwhX4rAO/96hA+7InfMni4WU/8XkW+f15y4TMazy/7Om8iJrftXBHT9/YK7AdMH6IdzTpYc/5eNR4qfH+EDUea4krC3d08cWev1+1z/cM6F0+GNS+4/1OuV+Oz6MB/+WQ32nhohzWm+B1reL9Js1Hlv3k/Prj/tMaVvqW/VR7xhMEn2n98Puyvy17vv4o1zMQv0q6Xy17xltkv2oTK0dJ89ll32D/SVbYCVjZTIoPL3vGlwR/W/YT10/+eL89Ynzi9g/E5p19V/sC3/vV7xN+6/YZ4/mkeMWyp/zaf79gfJ7u0cWLPeEzSfGWXjHfSfev6cWe6k2GBy77ie+ryPW3w/uS8643rOwnrX91zkfSPZt7sa+4PutQe95PBK/rjNcljef7PKwHqY8s+4r326faT1zPglePcHhfct4t+8n2H69nRMxn8/1pPOwTxs8PtO3FnvL3rPH24O89a3y77Cn+zPfo6GFfMB/Jur8te8p3sn5fo2K8l/V7Wfa0/rMSDUY71IMk31z2FD9nYw70w/VLvrnsG9a/JH4bA/OLrPWdZU/ME6v3LXuq7xSNNwZ/v0XP9xmQqVI0H1n2dF4UYz/w92vEpRkxnin6vmbE76VofD4T1jerxqvLnvLfqvny5O+92vN/UKXe2Et+t+xpvzVi2ny88Tf2Uv9d9oS3N8VDlj2d103jvVkRf256fi172m+b5jvLfsB67lpPnO3En4lqX8B+aH6x7Ik5NjS/nh3xhHGPll/sCc+Z9vw7xg9T8bplT/nCph8FdUBAISgVbznQDhejciHnYMgrKsdlOxDGl+weBtMVk62KgVlGzJomnR10XQ/G1crVTTPFVHeuwZVp34oGQsubmWNPiWLp2DTZ3g60ltrFTSP69QAHXhzouIwP9PDFgeoZsWvBbTng9zBsRx2YESwHSZnmZLLpUMxsco1iU4CGOlCQuRz0m5784qbC9sshUxoUNK7eDpQnPmDHVwdKzAzZPTtoaHFwsNz1dNOWfOzHSjdt0e9+0+RQFG6bTG69iNcG539FAcblQATOzfy274FO0B3CTHWgkDA1xSj2N03voSmJZzvQJXUlJG8Hekr94i8QJ3nHDXYPFPc8ScuvL44d/CkRMrxJ23IPTBXKQXnY24Fyuwd1+XW1UvIV7qz373WId/LC6yVRuh/vK+d7bzppp8l+rJSQJ8vAGCFeDrrdD6TA5awY9F6tlAM/IMnXU5Qdpn3TdOzmchEvUZkwX+1LyBs14vEhdMhVkbvtQO/BqN/bge6hXTxWwtJz1+LHdiAyblc0cTsQ+jKu7oEdNH87OEwFwM4OmrGyQ/Fthp/ScigWGR8cup1x6BCvHis7XFwS0czj1VMih2QB1tGh+FpiB08H0MG41GeHTz6lfPXi4Jsu5SJYJzh7ORR7D4RPF2tY2A4EiFVFtCdXCJZDthdHJabloKE0RzNPitjrCUQ33RSl3g70HtpFAk40pNIVV90OtDT6xYvDRpNu4Q+f02Vc7EuD3vTQWtbZwbNddJhaLT4E68tBw5/DTc+LY5fi1hoMwOI3XY2hdgh/qlHCJlNqa9Sax/4e4KarkQ4O+cPmpNkl0SdaL0M4dvAgER3KxfmA91CuciB6rEVLi9uBXly9SGko8VsOntLgm77a+Whfqs1AhIHl5s1m8+VN/XX9Yqs8OHjsjQ7jIvY+OFxsxlSjsAbcw66xHBQl542sPZrMvnMja55aDqxbLQfP2LER1DpXTn/BWoEOT+nJbPvOvXU5aLGIscpm1fbDwd6s3e6wVTZHsHhfalYw3eEPXZJ1bB4CrOXQ7R6I8taq1Zg4ul8O/qYTNSG3C4yM9CSWg5/ThGs0Ty07oj/LQQGpzsu7a2fNciCcrw0DQjru3m0ol2TXsuimp+UPHYv1y0H31o7V8R4uyn3UbtLjHb99cSCY4kmPe3WAtbT5cVUdErzpbi2iu2RJl2ScldmxNNUdX+oIqnWvljUEN3u5KAPTgdLLRR2YwtBNk5vqQI3zvdqLaxjN9GqhQ8Pl3ZuVdRri3stByzoNyT2bW2c3TbnoJtfZPRAwuNl1TR1IeWQ5DLtpIvz2R43yxQE/oGHpQENKUB8Xl0Sc9D4tum+43XePlxqWdTaJz26aaFkjKA95Mq97ObSoDhQZDw+wKsYawwt43Dq6HHQjq8ztiLbdV8SXhrGjN/uFLsn31sc+8s5BnxLzcYYJGiwHJKiYgsNmCNFfKAZuFgTVloN+QAXrQKNadJ+xYLE5ica6ok90VEuPMx5Zw3lRCYP15SBE7+VAm/EwZZvlQJHAclBcIyFfY3Q7pyOGcKNbSSQiuXQ56PkQET4dw8Ifbh8cw1AH1gMZnrwG3jWGfXHc8TCmUjRnwCLkZnB+3ATWf8FLmlrmHEzw2BdgLFP6pmfQ5HU5kKzStL7zzauFD2gay+tA3H3yRB8ODRO/aa11o+FmPK33bfAZt6moUx1QiMwOlLUXUlQ5Ta5kOdBGNq3/Z3C/2XIQltfghtfntvVwSFgdmFYHGtyisxxkIxsRg8S9V5sDMQY3Z1eeUsBy8z4+pK1k8tLIuviWA9WnpxHrO8NF+wg0h8NfEFxjt6Kwg/RydM5F9zEuN80yhNPY7L3xB1SUntcr5nGzWP8T6wktB21QKphaLgftOCoYVe5wKqsD8fmmlQh75i/OSPM7JafVWjS17AmBwe0w1IGK8rMoj7mzTsesyptZDrj4jN+6Ow1pI6uaiy4HfHFVe+82HsT3UMyBoMdpnJPGZKFpcoCNy83T+P8bl6PFV60hmaU/t8NUB4rup1WPN3pJ+1K76AGm9Hgnw3IPlYMTQ06WAzGZnwn9w6Fgm+hsJvBaEIXbKIY0VrNk8XYY6oCdA01PoN0Kf3Cw3nncvY3wtGseB4eiDoe/oN9DwDrQdhjqgKdo04awOvkTbRrzVRaInQbFHyQhnnDsi8PhL6gIBndYTOuiqZ23yq6ck9p4M+5aj3uWVt85yClaK2ICs5syzSESMIJHrdhWsusZckmFt/uu4qY1n56S1FBqPt2DbMY1Yal2l4nMAd/DsMUXkX6xS12m+EPlhCfj6uEQ+HwYuvMtBzyBTMK5TE4th57ThVsynnzZhwOTti4dSJfhwqFzJDB0My4NlU8uHaj18cKhnm5aHRjcvHTA3dsdDqfolQNGAu6QOEMZNlogcbZrlNvN5Tw8JdPUw2PXMLISscz5pNW8OCBcZC1KJWClaVptdzngZjz02M2HY3dqa0zmvqztMNSB+oGmtWRkbp3cDk0dqJl2WuEoN6yhzKmb8XLA5T01EsgVG1eeLU8vDpiLukP57F8on70HLidcOmDC4Q6J8dYrB9xb3YGh+EsHQtYvlsbh2DXce0v78otTbeV5OrIk9k5MPHs2Vb04UP3BI4HEvJkn0+fhcPimLcDazWOHINH+AoL9Xav4qTEE3HXXSFwBn9ZVm+opBxLVnHSIBJr2ZSUeK/CsRj8cCn/TVevTW6qfgRBB1p9aIm8RrKAOuPiKZihb7YaBQeG3JhaX3nhrUQc8UAwCTlwinDYIaCsK0lPK9lhZEHBaBfyp8fnOQYL1xBW/aZpuywGxmaggQjxgAsYNjVzx29WyrA6Y+JmOcuTO4F3UlL/A0OMwZv+ePMEOekkDpT6GdScsB5rlMSxIjONUPRbUITIauhwkSIwsHzQMpoiMnIyuMV9kQbLNE5Cn1JiZ03R5R5ZsHqYxE7lKM0z0JrLoyigarMcDHaloDnQYCzNMBymyzu2wFtbIR9bIilVGxpdG1lpWZJB5WF00MiA1rK0k8vCNYeqCseAZN4xMGllubETNFCPrEQ4TEI6FNwEbbRZZQXWYos0WY2F6nv4FjgS2JN9UB+qf7qYStAVl6C8MlbGKGbk/vWvZPybUdeimiRBZCLNb/SGykl63OtByIDCnV4Va9uwv4rdWrQPFhKBa920mInmuW9fUnvxHDqZ3F1nPsBt1IXK81E27KHLi162tJEbcjLtpOkfWeN2V3KwOOAQvaBi6p9TR8jb+0p54SN0J05Z34KaPaR8QB4nLIdgl0SfaLDiZOOmteeMXHolPIeSnPZ2IrWm1gpUHmzMeceNuVV8ya3e0qhXRQ49YMalRLAJ749DAk6plTUG5Gb1Z9/rAIGnZB70eqmo0G9XFsW2zs7zjqdZMdq2zkqD13XKBopksQ+cmqWAEEMx46tRyHXep1Kn327AsWw2MbZg6V+veZuXiOhRUadzcOhRTaRiqVeukYL5ltVYNbryoVoXmSY3VEh2e/LTsdRQGrv9dP5Z6L0++rFb5ZGXPotE4K+nvDmwZ3YBYTc2KXXJ2UC2dKNzFm3zmNPZGWzLBfQR7kEsWe5qEt+vMOjMbn6eN5ijIh6lR98OCgVYNCjYXVp61GIXzlF3EljIeK/lOheIy4gLFq00nPQsJLDNPTrU+c666FNt/MjZMFOOcZFZGtoyGZ8yXpgI4PFmzNCsostJx1f2cidhbCEbtqWRUrO0m8/opuv558nFx6BfpY3uQmtrTflsMzUgYvxUbtZFwfy42aiYh0bFYf0E6aTpJ/Jb4/QZNbxM2SGzdK/19er95WvrMwnRWvo4Yb2djQkTcH1x7LOJ5kbsl5yxK17W3iEkN2biEPIlkV87Nnp5nNeD2JEhn10/MLJfIi1i0zkbGjxgPZ5NuiAimbNnBj/sh87Nd1zAgayXbqBOeZJ+jxts8uWrZF70enNwQNF8OmF8v+2y/T5MwpnYfHe0l/g94/iajDR3to14/2ps44dE+6PpBezuvD/ZWQj7a23pD+6L4xtE+f8o++3o72Ev8yevZR7UEjP99FA+DfD7aKyDetY+Tj9cTefK6F115kpad15Enn9noS658L3ut/+D+k4J2xESktsdp5BeWoDcB4MST+SweSDzZ0UiC3DcYh+Jvh8l8tv8knmxnxJqMeNGukmo+QvFtNNIL51PLvmh8Tvl4tFEbGXtJl33S3ydeXbR4hieL7xqv3i8RLqPVoZnLfnX9hAfu56P5JsU/+/nbeuD7tXwKJ7U3zV8yT3ZsKlaaEU+ITbvC82mYwtT3S/Qkn6WQMX6O7SJ/5+9lGJ7A9rK/ZazNxaaMr+P3Zfn+6Xu0/YHfb1J7yn9jU6GazJOMrYkt82TQC3sqv8ZmZGOevNv0vMvIEY9Nz+vMUyw+a2/yFyzIES1eTYgXxW4sSR6qMYwJh/TZaE0oEfGZOFSMI/L+b0rdEfH/aPWRiC3BcVpRl+O34PkLzicInl/gXImgLcqHfCrqeg48qdFGJXOn4RPuedoT/u+jJgOeL8nwN+6o8FF+AZsGN5xt9odRI5ovoL3JwR7tBS862Nt+e7Tvmq+hvTVVHu3Hp67f+uaO9vNT1z89v0P8J6hyJ6+ffPH9on3Uet/Rvtv1k73xYvh7yUnxQ56knrPWrwPGez6VI2C+lg3PZx2jZV9tvyI8ufr7xcmdVc+LgPlgbpqPBzy/shHQGK/Y0zXs9xlPrvr8KT7MxtELWI9b9sXwWHr+Q0Ux+TzNU/PNiPTTPI1+yvWsYAwp7CopwQjliCcUw2MZb3k2PX5f/LPrR1bvoPqOjZKOyDfY9S+t71C8V0xSKGG+WbLGMwnz32IC7gnzx2KSLkzXLMbXSsiEX/ba7YV8gNIUL02IV5Sm/J90qkdnrYcSP2oPiND8AifjmhAp41dlKN7IkoW7Rf0zeEiZun8y3lJsf8j4vdeg8QPjCct+6PUj38aY46yatMc8KP5zGAth+AbytawezTTzZa+qBCc+z1C+Cu3/1UaXcwNcNf2wgvy9alpdPGl42auCwWm6g+QXBevRm99l/Ci636ZTPCo/H1O3qfx8rNOnIv5Quz7/ivlsHRqPsZphHcqf4R6cas21DePbag32DfGfZa9yW7j/LHuJ5xur8AeNx9qJj5rVHvnAQc+vhudLixqPsUT5spd8reN6bjbAq+Pzb0n55B3xnJY1HusYv239Kv19FN93KT/mJxeth3bktzSbFjNw/2xWL+ZZYs6HHxivtqb8B55F07rWg7iBs5n60IFvb/W4yZPdfXQ58luaDyBFPK25hjl+X7snRH+f+CQ96POPDHD0aI0zjMAtB2XoBEzBug0ujwE5QN0mvsSARZ6erUUqIOrbTYY0Mu2gWw/6bv7hUQzaWMnEpG5KkJEz1e4NrhFTk92q1tUBb9pqSbuR7NBuZ81wFP116+aJiYcM9Iu/gJ1nNoJ4OVABqpu+R2SNdB9jEDNSFoZBijHjTQ+bxxIzglpbSNhaN1G23b9ppgkMO8Z3+ym1MietW8VymhmghaJymkogkUssmMoNG0e3u3q5u1pym1gwORsWLMTDGINycUk4KKHY0qjcN1zsKVXcZoYJzkbuABkmBxu5xWTrlXuXO/0F56yynvLwrt6GqNUw1l7kNp9h8jWxYevmclDVB26cGkMDydi5j36YvkdHqH1Y61dk0dytjdHVgYqP05KX2Fk6Mmj0edDG2AoiXR1Q4tkU/eNAwG6roER1QEUdm5AXJ6sCJVvekyV4PF6aLD6WrUki4GY8s6GgAWkEM+vi23UJVv/WvorIl1S0MSpxD/q0tvh00Px0qPggb1a1NzCxeMBWzs7qcNDmFrTspM7UFK454H1bgFkcCostmRZx4kPxOVbt4XBQybIgMfEEJNfATZW3GQOd0kHHdxhqz1PNtpqlvGnGPaaN30qdtZNsXGniwYOurXeADqaVzhNP2J7TpMEmgmHLQdfSZB2uaTJzk5W+ptEHAw8OmZpw7Ao/EdhC0BPloFl47YEkuQsP3pquPWjFXnkcqKiXHpRgXnmwCua1x0FoUwq0ZylP1WCtfHRNhdQyj9bbq7arAw7UmUYy7RiO7g+pqgOq4k+dIZ0Pc1lMFy1PVmOfRmQ9fttaSWLpkWmDUQuDOtOw+i0AfNAvzepwuAetJh2UCE2/tDD/ck7llxcuOG+Hog4o9ewOmXXG3aHwkKwrh8OLUweucl06HL4HdWgseOrvoSPR4dLhpHosDgOpDpcOh20mfYwIymRJVWu+Xw6HtaRC/UzPckHsynwij5sqN9huBymAppOyv+x8NWHJ18XVK3PIXc+35tNfEKC2HoJ2m1JdCw82sjLrU0jkrYNNujgIxAtAWLlSPI15smvfvDSkDlEPOuNDuSeVh07vwRVdHXCbMbZ9HfzFdS3v1MPAta715coFrdkVTKiTl4bNVN81Z76HYg4HqWetqTPpbzvYyB7UGe967DaWLfBhNO2gld4V1GkHNfau9aDlgOBa1yR2D2fiVH+aA/U6+RShxnN/9/Txog4YOjTtDt/1ahb1Frpaa4wNNONbtJMKuGTuW4KOZy3p99D5UPQhWawYPJtxOg6K8ta02A4Huw8rOxzs1WgXgcdKVONRHGZeVQV1tiAjS583c0BAxJQ5+yESqDb9ksmb0yY8d+7WnNXU5PIJURTAvDP/blbtT+qFkd2qMV/nmtasivd1rjht3HWqA744q2n1xpFx0fS4c/Flj8uUe2Ba0cVAzs6xd1EeTB8MIhQbBHmoQxRlBnaWttyQfFAHfEpW7hyBP9Gs3/RgVoWPjx3xOKA2qAPpM+yZuTYomBpCZrYp1dzBOY2hNg7RvY8i5kr4NM27cZjrmBT032Lo/Bdk8Y3DRFtrCxwsrn4xdJqJi15mGwdQLSo6fZ7lnc0BI7Koe+s4jEOzZs5xmIkY7HuYSH+dweh2h+GuVrIdPD52GFa5fgLZLab4NwNmisNgu8m6ymNq4jdZG3o9dVlLM+JmPIZGAs+x7O8c5AOaPN1sdOMlJiQ++gyHmZgOY52dk6OZTZIwB8oUR1Mu+N486R5MXGSyeuGwcufMTMOwdp3Jqvh7Y5TVyoKZTriZhQeIGHNw8u69HHR5c4/AyPaJHmY4ZMWXnlOl3znoe2D0Z1gbyKw83iNplrUTBHqsSRtrZkXkZERNXudhvEfU1sHJE573lIioDrjNBI2XZsPy/3D2cGOKW1DIa+e/sAl04wA9pxm/c8j2F+jFrbBW0oHJwXq3UZOTNax3pG3vAcdKdEVOZkc+WTdQbTvQTXeV1dh4EN2DUW8nD1zrJiwzWXm827TwjWnx4Ard+VgLvVs+/QTy3jlEe0p0PuxU1W6ast1eFCifPAlpp9tDHSgS6CZIOTsTlLMSATfGS/eQFRic3IOyh2/Ym8amg2TbTOcvLtrUhI5to8tBl8bg8R5Bi/JP+P+dg0TG24E6VzzQHRjotqmY8WRuYhu23fMgyGZiPNuBp2looMvsx419BnXA/qdmu/dAoLxZQ+IcGP60pkD5LulxC1Szx0rQY7OezTnwfNhNXHIPExO/VpSgPHk0d7ORPZNJpbtvzS4JG8WscX9O7rzL2jgxme3VkhZS52HWStIqzWQYu/k2c+jmMnWGOfF82O2S9hdwAk+w+TgTBZebR2QTv+lq/ShzIo27GnNwMiZQTUN/O1BTuxWDJ4+1rj4V6OiQbfFRwlFNR+H0Fzz8OTzWapHxRKyyVsM1JtZQalUa93agZvtiBzt/cdWmCc2JyHrNWp+e3G9ZrQnnSb25drjaNQ4OmoseHKJFxhMLFtXmnO7HSn8hXHxARO6twWI+3sjq5a4Bb7pMOxR5Xyo25/TwPRSbg312qL7NsMPnNrLNuLIP6ODg7wEvqWsN5bB7l2bJ6+HFtYv3QEujVEMSebUWazQ9fA+lXpzTie6hWPI6T1NBFNzkNvA9FsQcTrpFFlWisE3W8trJwco6ZwdF4Y4OGiQeHKIFiUeHi6fE40oUqzw4BCV4nB0+eUnhYtdASb15EcKhg014Pjt4NIMOnscdHTzbpaeUTaf57KCDFHktZett2g4kfWcDm08ORbVfTpd0Ff7QrpGti207kLxetkvitGw56IubiMLldLXds0P1QJcd/APCGTU2A+3ZHPDOwc84nLJjo1fnPI090UoTt1C6LujkQaTPOaXfeQ9p2gc0sSSSTCptTix+JSP1HnKgZMPNDrFGsulmh8WXmsF2E5uWU7vYjNHBmGqnS6oGeXGKn+rFJoCPtSjrcTvQPVzBRbg0TL7ksLyTlwgn6oruPlS7JMKMn3MrXhwIM34OZnt1oBeXtLt2ToTtkmlnPnvBrh2iUhde+tPeeWjNnOcjJ6/gMf8i2cDFZwvjpcPuFbedDCXZXfKIX3WcV3sldRJai8Vhc41DCd+HrS/2q2SU5674PkNYSzT+9iEJ2pMhPAk6jCb4VJT4FL14jX/okqrhFIPftKmbH8D7rbhil4TzM7KlikcHxR4PDjZ6fjvQTZu+1ckh2l55cDBRvu1Ab/qqmEURlrVF78IR0cKM6sBjwz00GUyNMBSE64PDML5DTVTbXWdnhTHbX3jsdrP4k8dcN4O6eAy1TYl+Mvav8UC7nopjqUzD58DfccSnYq+uh0hMIi+mmsdjk43gvcnMBCgZB/EwttcSQybyF0tgEn6PxYKjg2y2Hfos7ZatbMUEx2yxF3drZHv+gceKKsQ4OGhxWjcD6FlLK1sdCa9fmhEHF9KzElEG6xSZYOHg9oCselSDZVCdY95wPRtIMHhMfTKmf+WxjaYKymPhk8Iig/cHU0Ba9iTgkrRGOpj2mWy9ZWRMOqGeVQeT5piDxx4mo3FH3J+tcj4OY4i0KjcCp7C6X43DWB5d/31il3ZSbkGfuB8m/V764DFHWkntHWXOr+wRarHr6Yf1L6z73niMm7XfNTwfo0bRWxyUAkpFsDdXD39fu/sqrgebctELq+woPLF5d6Rmo8JCnXnhV/aor6NVis2h+6Q9jjG8sP/c/fIY8KgIVA+4/q1Q1Lnn+8qe6Htm3w4AgLUBM7EhanzSuI3epi5tXWl8PgJgtI6oTVTOf2MZcgOeNs8Of1+gsMZyJkZl333Y+PtCFtu65Pj7qtpfeWygYuGt4HkRrUO68Jhc6//PPLbX2v9ZkffKHseuqnRLSzzG8MKe8p1oDeHxsB+qGAGrM0Y9rxsLchssuuwpvg0mtDGR82ls4MrslqBTJyvX8WzKSx0IyFtVe9knWP9Bi0eVKdzWF1g7cjyCUp5qQww4KD5QG8afQenbW6uF7T+uh1px/7+y5/t1e4p/bOrPnhMD69/tWXYzaL5QMxalguazlcc6BSUvVh6rFbRZqnJ7YrCpMxFLwFakeM49emcv6yccvndV7gl4Hl3ZE35l9lv4CteP29P5fmVPtAC3H6frSWp/uB6zJ7zL7Tvmj27fsLZ3ZU/4s9tXRNyv7Hm/knytlNN6E3se031ln3D/UfuEUldX9pTvmArnQQjxyp7iPbc/fr+iCspVUrvfzDV9Y3tsTheuB8E38jicFzr1jTWDbKp07offl/gwc0vklf3nfp/1IK7sKX90+3I4jyTeXvaUDwab8s54YNDSa87IOgmaH2XGB6xLJLMMqMVjmbWOguabOSKLzOLPzGNsgzYaZBaBCJqPJ+ZrBcUr9hgofP6iuPusMH5ffrErjJivSQk4MR4YFV9d9qgRrUXsxF3W1se0x9AxPiD2rI9qLRKHsYFR8fxUmJRiU04L5hdR64OpMA9H9//NX2K8WuwTc4803t4IP+LtgockHpyUTIo94vme7H1FbC2yJpvD2OdkivsB43/jcj1P2Df2Om5ooiyB9SJG7vnJev7GU31QtFKWPfU6Gjsudh7rbfOYuHXe2q4iiypkm4rN822KDVirGK8WPa9jRXzb2uz33CP8fWkSjiyqUmwWDktolYvxVjgmV/knhwldJtMXGQ+sGg9Ejuer7rfLnvAEmwoZI9YHbcpsjIh3NRteFPE8ajZDiuuVNoRkz/Mj1QUbRHQYSajxdgws+GF0cnxd3bjhBzaSfL3c+23Kyg965Rtz+bYGhoZDj96D2qlGPqynMTUw6Sx9p3VBFnfdoy4F18ZjJVpczkKTzyGRD1yJyyimGMe0imiyGDybLVpDfGVOqvXOFmQrR6Ncs3RVNN5JQbGUTeYUnAJbqmPWD4t10aO1CRYO+4visJkJtUU1BzMe0+vUVNwBYZZ9yup0egzLTVQ34zYYTV+NBdyiaSEnppY3rWsmpJlF65blWRY7KtLrOfy+DiTi92uqAgnDmG0vOALqhERT4OZRo9s+iT3ByFf2OI7n4nowzby4XwpLok2Tzpi2RJMDz0ijPduvf/jtxz9+/vNf/vbLP//5+x/fvv7jy+v//9vXb1/+/u3rv3796fGffv/5x9++rH/7Xw==);lineShape=1;" vertex="1" parent="1">
          <mxGeometry x="1078.5020701182048" y="1780.9072040389788" width="323.7946797402278" height="312.4629773349195" as="geometry" />
        </mxCell>
        <mxCell id="E-R5BdopuUIVvVxe6unr-21" value="" style="shape=stencil(lZ1bkjW5kZxX069liTvwPJL2QTM2h7Sh2LQmR9LsfgDR6j/V7qgv+rz1xeNUJhIIxMUj4qfyb//48x/+/vNP+fnHP3/95T9+/r9/+eM///xT+R8/5fyXv/3551//8s/9Tz+V//lT+bc//fLrz//+6y//+bc//uvf//6Hgzz/9L9/+T/nF/7fv+Ra/ej9SOXnv/71X/LHU/7/f/hf/8L/9S9/+y2+5vfwqSq+Ab58zKH4jvhm+IH4bO87AZ8/lr5vehA/9H0TrU/+aIan980fpQk+8/Mkfd9cAZ8+lq5npvVMH2MKviTEt6V42g/poybF8/Pkonj6vulze/1O/PMx7X0X4oc9P+ObPT/jiz0/45N+X8LX9bHsezF+Pu/hu60PrP/Gm/4J8G/th41/3sLPj/kmvhse9vPG1zfx+Z3zsvGPfS/Cj8t5B3218U31VYAv9vygHzbezy/ot9ov+xP088abfi4Z8dnOF+jDjff1J3z7GLYfQP9vfLX1YbzvH8JXvy8CvD8/ve+2N0z/MP699a8fz1vft1zOO+P9vNN+Kx/Vnof288WeQfy2Z+z36Tzmj27nl/Rbfu8+qvlyfgm/7Q19nkr7Lfl6Bvik90ul/bPtAT0vAb6q/gzwSfcPPX/Z9/U767PxQ89LgG/v2D8bX96xNzbe7RPYb2Ve9A/jbf/Qfbfxrv8ZX965rzc+mb6F81jGxzR9yPj+Jr7aejI+23rCfb3xrm8Jv+9rs/cY7/Yk492/YHy256H16Zf3pf2573fTP/T7ze3hRs/ffL91uC9Kdf0wSD/Uj672zAD9tvFm3wb4rOsZ4B/dn4jf97veR/i++3639QF7YONN/w/6Xvt+1/M7SH+Wz3DGCz/pebK/76TnudgDk54nu/25wP4p2e23Rfoz+/suep70sX67P/eC0fok9d8LxqM2Xu678hkA+w6fpuJJPyT1F8qnQrrjn8/t8gVP3/fReNqPDfgdXuJRBe3/YvZMQfs8L/9e9Psb3/V9A3zV9w3w2Z6f8U9+Bz/VnizoX2x8s/eF77vxRfcb3Ucbb/uzwvnNQ+NF5XOBv8Pb+zbaD0P9wfJ54XyHT4aH85j7x9Ln6XDeN77rfuj0vt3PC90XG2/7h/R5bh+zKp6+b/tcjhd+0f5p6k9V1J8bnxVP8fONfwxPz1P1fSvGw7PlOyrGw7PFHyrGw19//oVH/VbUX6voH53tNQWP58viCZXPS9F8Tf1MaNzxP8yFF36Sfsiqr+pnQOI7vMQDf2yQ7/Cyf9qnQ3/H7/u9Cx73T9L7on0GYL7DJ/t9+l6P3neN74tH9U9Df2TjyxI8+RcbL/GQhvsnLT2PDffPxjddH9o/G5/1+UlfbbzElzrm+9LU/dxRPySL53c8jxsv69/xvtj4pM9D+jxZfGA73KBPNl70/3bo+ffrI/hG32uovTc+Hco7vuvz/0hQfIfviqfzuPHif020NzY+K578r41/fvs8C/VPahpP3geC3rep/ly8H9pnOPgTn55PC/Y7AXGo0sNfuKoHuQUmfYJ9A/1WpaSEOe9knIMtUOmlqxp9W2DSV7ZbOGV027aAuIVboNK+KPYO7DhvAXGEU2HNVVRTn58gge0pdxVA3ZXVVk9s7KasymULUHQhGbvhfEraGlnDWYntobMR7C/ggU4a8HidkO8EJKK1BSikvgXEZNwCFKNKFgM4WocEHg16bwGyEs6RTypAbspRKqI1Btr5W0DfYXxaAleBpXHRfTMS8Wip3bvxFBhd9gITHa1lp23htrA8xcaTYz/tfX8wK77Ba9z+wcDQtDjbj8jPN/j0KH7B74/PMN8PfMLA07C8TPq8Jr7Byw4NiF/DeCAZ95vzCjIapt14QeVTNX2DH4/iKRHYP82CL3g6kf3TbfiBZ0e9W16AHddm37d+Wibf4DWPUD+Zft/gNY/TmEhn+78xUczydD/+4jd4setyR0e0Go9xW55EZDGeQEcrqqodfnY4fF8zic4JokCz5VUHB+KNFzRRvxXLE01OzGjcMrO+Lfa+iwOXH8t+n0zGrPqqPBxIUh5UefB9f9BKfuBT8Ptitp/MBdk1uj8LE1mSxs1O5ogMLYvTFjyPSf2Uk4nD5xee0skkkg2k99fGUyLq0f1/Mq2IF7914+n5PS/T8fkftQc2foF+eDQvWQYGvh/Vt2ViYsDzRAsNPuO1Fj5fZoEe5gzsH8en6HkMP/D7Kj5/enTf4SUOXDCQfcNTYMvxFc/XDR+sv+Ab3i83PNlvjmcf5oanxLnjR3B+FT8xAnDDk2vr+IX3r+EP0/ud53kx2383ngJzj+rzU7mA31fy/qfyAp9fvOYW7X+NY1dM1D2al29sHzqeA8fGw994un8dPzDw588zA33i+OB5BL8C/Sb4/mBhzw3f33mentA+ueGD/fNbe6nn4DwKT6wXDDQ/Gn/oFeMVxgvtHJd6lJfYG/rvdl9vfGA/yPt2JBY8GofvI9gPw/AD11+izH0G50V4zn19egTf2IeSZ994im+YPTl+fJHfZ6+OhOuT1P4fiQPMGl/eeIzCa95tMFE+abxi4ykelTQeMgKij60nh4qz+u+jMvFF8yYjSFRrHnM0zJsUjQ9sfEe86P/RmYimYejB8YSidS4bj0RPzYBsPK1/1XjRGEE8ROKrG0/2QP18uy/4injNY7K/U5VXPAbaw+3TOv2CX1QoaOed7Unj8Y6JhSLG2xmsD5v6+xvf4ft2O48T9bPxmjae/Ouu8Z+xMFHdVf9vPN2/Q+Pzg+2ZofbAYPt82Hlc6I8MrSPeeCK+TK2DmA/6s1YnuPFENJmWN39Qn0zVDxtP/t1Snvx88Hwty8s/eL6Wxt9m+lyx+3306AW/BYIcmETQZ8KMwUmaTRVA7ovZNPMHO/kukJRMMTOzO6x6egsgPSIpvWwLkNrdApJE3gIUR09ZCYFbgBRLsgr5yZTwlJVSMQsnkYsta+GtYaS6WdD4PnSBrgJIg6lqTmwBOg4n7S2PxETIVDWZPyt/6WYaqeINcqgq9khokjbVkbNhDCNZkmsyG++whaYKEP0tjc+k4hcBfGmrn9oCSHkYSkiYnR2DaQeoY2bVKWpbAL+01cBPth23QLV3oOT5yWXLKg2keZ1k9lIBUvfuj87B/kfSBMpkg9OZoJMZDMclqirQiZudNYe1Bcjnyj9Ccl8EyInNrionRmGzkYyOAL1D0Tzl5LjVi2//RQAZucW0xkRP7bgu0wSY06221URm1XFG1psCyx4Jd2tT+sYRYN5+cwEimjcjYk4+D109niNAf6FrSnRODKE4x+II0LKOyyORU56tW8VkL+mY9ba9sV5kar3sEaDNN5UtOScGTk9e3F6aMlvH9LZ3oNBjth4vW4Au9pMat0ci56c89tIrKtPTK4t5t8X6AszF8Z1kxvriSmGrZNwCWMqbTWuwC1os5rQFgmLVagJYHWrduCZ7rV6euzgtcOqFkwqQui9VA7tbAIkmTTtkrAcV2RZoJkAM6GKxlfVw7K+rKb0FyFM83AB7JKJ9l67u8UpoYHld/hGgws+hAdiV+MMNNUMXZ3SKhUxWwhRumUqk3QKUoyxTz8MWIOe1TM1aHIGgnYU9Ejl+xZTxSvyllzLRV0L3uD6qKhe32KuWqtwCZHtXs71X0ITHtPcWILLHFpBo3RagaNSL3PFFgKIO1fIRK6PmO3QQeaSChMVqlfeLS31rUdNhFTSwquUMVkFr5jRDskeioF21KP0qvPmsWGRVXqWmeYPFBZinQdajAthRqKtLswXIDD0twYoKEJVvC+iVVfFMnyZoIsBVj6crmwmQMn6RW74IBH3rxLVcnG/eAmIZL64ErFbZtwUWLevSYM7q3Pvz0WDOFiCbr1lSfjFJz7tDbgFapdOu0gRoLzUL0C7mCbdsBWkDTenD63lUgDz20yLVBCgg1YqG7bYAxVu3gF4oA03pZuHTLUBnegsIvW8L0IWyBZYLUD6waSHzFiC3bAv4S5Pp8CIofRHAlKZblQNz4ltAixXHZ0zrLjA01BILqG4dvL2t3nUNzKE0C5+ugYnKZh02FjPhm6XKFgfV2lKuxxGgA+Sab3Kxidt8E9vMdKNTLQ6qbQG9djnk1Y1ws7hgoBtDfHHIawt0F+BHWrZKWJOTtajoCNAjZdveEytZu7VX2ALki/ZiruXEG6hbTGALkA/UiyaOVsAksBbgiyNYW0D10kTT4VDl7DxQMr43s+7nZ4buO4FqLx0IqFsWCHQN20Xv0C9ag+6H3i/nge6H3jW3u5jj3Idd7BOLILrHBALWyLjoVsqL9mkGFkcSt4AQU9ZC97hPs+4XmqF9WUCKS5m2gN5AAVdmmXHCf2E8ytaIBVSRhQJqOvAqDSNYBt9hWOe1+C/o5uMSlsOotO9AzuvI2rzjCNA7ZIv+MGt1C3R7abqnh/X/PQK0SsXuOC5cHsVM6YVMtmGlg0cA1P2wno6xgNreoYCGgIN3qBYYDASamT/BsrbbdwDtvQU0NhMK+F6i3kPDUoSRgDdHWdhdcBjBIxZQ53WhGTqsf0wsoMH+4AB5ZD1gLlrWMhZwZYy19uP2DnQe5uXEBQK+WwMBNbBCgWZaIxAYdqYDAbU1AoGlPLJYQE24UECjcKGAxr2DrbG07jXYfPO5fWkinlolWfwXxlu7dSaL8y3uhZEsw7EwfDqtKcxamBKZ6bKXiA5+eJouQI9kNMnA/JnuWi6MOkxrDbgWljRN63l0jHXQ3ocUaf4DFXEdUqR5KBQzntae8Xgo9B2s91Tglk1PaDPBY7rpwKyW2UzNTGwwNNvFLcPeM9ZMI4j+vEiRX+NLdKabll8EEaxpc1JOjIz+QrfQ40THbwt4yItS5tP4S2vw9jb+0uIakmlNaILQ47Ru/LFAtXhrIKBOU/gOHjNGAbc1QgF18YPvMM1IDL70vARzAgGPJKLAusTIAoHiQWYWUJcmFFB7KRRwZUwC6zH3OBTQEDB/6eVhilBA2mxEAm5rcDphpUv+gWJky2o41sAo3LIReydxxH9BHfCBvaWWDQlcA0PAy6YQnnwcqJmVTRkP7NO5sm3vgRSSw/9wAfpw2Uw4zlout5eYgn74H7ZbyZTeAp6qJUN32bSKNTAPtIoSk9dAq3JZnefqyJt5kS2+CFAScnmwn1voHu5EUQHKoSwPtXTsFbEFnCdA5s+hQsheanjtnv9t5Aiieq5ulkDDkNfqZvNVLsCzDnaLW28up8EUTNWuYZZAwdTUGpb84mkL57gYUw1fepgy5vk5R21lFSDb+8U7+CGQ+AYa5uInVsbOq3z4L0xLTT380tYscj0YtjsCRkymwpVlNt+xb/iRxMU/JhetkhfUcgH0MobUnHw/GLFgDvR2X3nWLwLYM9Xs1jkwYbGm6tbJdKRl7dJn5xM3NTV1XEFeVrE1JjdiW169Vnl7L6v8qrysFuebTGJcNtTuRDpYQMIUs2A6YXm5Nc9ZeoUBvwgQV/oVFv8hwEzmZcHN+fAdt9S63wLYstd8oPlg0ccRsCJ/NB2MjT049LhsPPHgpPyyPsWn7wMdoKXkiMFFgcsq67cA3kBLrcrB1ZzLotJbANX9UrdsNCRHHIGmAmi3mrc7Kl9ZNtdyCwR7SRtYFG6IYJOuB3cIPgKySkxyPwJVBSgqfQRklRJblUv9hy2AHooLPGzd3wSItOUCfbE/fRMgltdFgIPMVwHqPXIRCCyBmwDa3i7QI2XsAlRscBXABu0uwIzyq0B0REWAewReBfJ7X5r7OviJ69xq4iIQXuwuQI2BrgLELroIcBHUReAJt3dTgeDaFYHGpZMXAa5Idd3auEL7IjBwctJFILx29R24hepFoGHP9qsAxjVcoGK27CqAYQoX4D6hV4HAqtTvwJ17/Z5uObJmxBJoPLTdbY2WohtIrJktQAUTR2CoQLCXJGzXnmh7Cy2shca6Tt5bkfkjEazKNeBuSlemPruxvgUwGro0iFBHtPkkvrQFgu8gHkrl5i7uA9XAAbcJ7pVH0rkfV0MlIPS8WpH16L5o5ameL8LIFwFiU6ylAanKc7XX0lxW5TLcZQNktgBl8T1MUR/swP+ic3wRCK4snTW6OHE0bdgrEwCPgEwRmOy8Grm6MHXhCMg7BOm1aY37uRHzmlrCugXQj5vKdSg8TGlZlfkWwA83lSFVGkfWp02vaNFL6xjs4ExPzQ5sAYxguUBhQ/cmgFrDWh4WbuF/EUjsP7jAw/f0TSAI0IpAXuweu8Bkm88FgvjSTQCvLBfonLV0gca9JG8Cb65SDUPxJhDkH3TeU420hg+IogLTqwBRPS8CGblwVwG0NW4CVMd+EUhRpskFgpfWD/cwsWCqi5+C+JI1bDqT3lhAYpWJi6CWzXpLPMT0JL9MAIk2ViT7mvv6nYDOYey8SsOGT3J/+TW06dQZncq5XfGytgBGpYfGvVNlE27oDIrEHTFPfrqrAJ6Hrjyy03qUbqBuYwMzKzKbh5syVqQ6sWAL4F5qSiEJprcuG2GfuLPQskr5xLMJT+uKpgLo+DX1shJPY1k29v70H2ZGiBbvc7a5WhKfOS3VSPR8GJzGjOTwZTW7zKteVpI1WdFXPTrcjfA0rtG5zRgLKMqiCGh8RT37wTvIegwH5DFjmwXMLqOzDY6+Z5sHgn0WDmtF5nVwBtt6l3YODyXVEjze4HAWda477udk81LY0Lb5Gy3igcoFyOPfls2La3zeH42hN3ZFbF5NYxPhUYpCw+v41QfwhSfn69WZ8IVH+r7H5riwY2nRHPun0yIRPL50mqFZkYUyp1ZfVtyfh8Suz4/rafZT5fHDw7xlHP9zCgMkQsB1Mla0yAyX2W2+IurP2VU/c++z2W3+JHqAp4e2BJq4KM0ImYXruZo/P1ajGKU0Y0Rn2ryRjInIaW00c1SlJGkUHpc1q7ocmb9XVR59RqfpEKiW4ml9rCo9Y2Z343MWPN0X0+rqMxfTZdXnHC6e1hkg4f0ys9obCZOJ09rbJsxhnVkYU/H8+0Wfn1ylU8NZFU/f14pEeVjHtPmH3Cp0WocMdmK8jjahvTp8vj2SUoZlxxLqt7G0G3FCSvuZxqPrT/bqmNoVKPh9a7MS4ovutwCvrjavj82rD/HDnp/x6mdHeHWzI/zz1vN3C6fw9+3qLyTub2HzoFLUuMH0FfY8aNp0MKF/NKxClccFbbzGdrg3TLMAGN7vZ/rcb5/nQXvsdCQZiif9UPW8P+jfDSv04XFNo2gLugfvi40Xf+TB+2IUPb88Lv30tbHfZ3x/8/fF3w+eP6s9FuCtpO5B+3lYQ+MQ3+x5GG/7h1qwDbuvA/yj90WIt/0f4MubzyPp+Ie7ry3VPyF+vImX+53PVzdKRIh/3sJb1jvEd1t/xldbf8ant9ZnqH0erL/d7yG+2vowPtv5Zfzz1v60Vq3B+lhzwBDv78vNB5M9D7Wwa2qfhPiu60PZoW7zNkO8fa8A/7z1vvXyvRjf38T7+WJ8fhP/mD4nvHURfXi8aFF/IcTXN/HJ9CE3Zl22/xk/1N4L8M3OI+P9vmN8egufLvqT8eNNfLP9zPjyJt7vd26AvN7Ejzfx773vo/5UcL6ey34GfFvuj5B+a1bCxf5Cs4rGEG/3HeKnJo1DvNn/Ab6aP8X4rPZJgE+qDxFv8YoQP95636FU5wfjh82oDQHeeiFxXdjGd1sfaiTfXT8E+Meen/BNK6UfbMpyKi30ebBNvU2t4nHIzeaTJ56FYV00OH5yBiRkweN48urx3mhig8Z/KN7bbL49z1puxeNXuP5F+QmZe/gX3T8Z40XN+tVwWwifypF5ZIbFK0K85WuC55H8eOZRKln1YUb6Y7PpeZwfOXjdz6hP8iUfQfej2VcJ81/N+BIJ8+/ne2l8kgo6m416TZhfa8b3SFjP0LKxGDFfc/D6/GTPtFv+i/eb5R9Rv9nzZ8yn+/pkjFf7+mfkS/j3zZi/8P3DJWK+P3nQu+//HA35kfOVoylCdn6pWMX1Q+LpOKZ/eHKf67eEfLm38cXvX7xPixEEkT/QisZbEo+IKVqw8WC+uJVL/JkHJpk9H8xLsngR6rfq+QXKZzXjMzx8HzWPb1B+f+MtHkv8pZt9SCzZm/0Z4M2+RfvkYj8HeLPP8bxf7P8Ab/4F8RVv/gsxp2/+EeIv/leAN/8uwJv/GODNPw3w5v8i/uJfB3g77wHe/J0Ab/EH0m+3+AZOabnETwK8Pz/jLf6DQ2Au8SXEX+JXAd71A+P9fRlv8b0Ab/oZ8Zf4ZIC3+GeAt/hqgLf4bYC3+DDiL/HnAG/xbdyfl/h5gLf4POIv8f8Ab/dvgLf8RYC3/EiAt/wL6p9LfifAW/4owPv7Mt7yXwHe8muIv+TvcD0v+UGccXXJPwZ4/148aczvO8bb96J4zi3/G+AtvxzgXX/S81/y4wHe9xvPVXvve134A8HMM+MnBPhseB6R5vY84+17RSPY3vm+N/5JgLf7LsAbf4bibzd+DuIv/J8Ab/yiAG/8pQBv/Ciq/7rxrxB/4XcFeOOPBaPjuj0P8Zcu/DeK5wybE/rwZDqrd3uwAeOwUS4P8zOL1lM8zP+0PuPcYfjwJy2eQM9TdUTWw/zY5vYq8rdtoCjHQ3w424N89cOP1e9F8d7Dv1X7luqhhk1LeT4Nru/wTb8v1ZscfrLxQ0i/Gf854DcavzrEV8unM975Y4y374V447eH+GLPz8PPnG/DeP9ePGfM+aJ0vm78Rq5fcL4r7efl/izlf099h+V/qR7q0Xjvg/XF8/Hnx/qgx/O5FN879TUWT+Z6H4u347ym5PUdwYC0+U4+etpEkYRjG6fdv1zvcOqzNB9B9Tun/svyBfT8xes7sL6paLwiYTeYjZ/6vljPVb1+gfgMZy6afl+c1Fat7wrPjqt6vjhfPI0vkXmCn/ExMrbYOvWb+vxY/9tVv3H/uNk9P0713T58LGO+9dTPvlVPav5yUK86dP2DelhrthLU2w7rWMb1vDazIqgXnv78eB6n6ueC9SPTW7RxPbVNMSg808xbIvL6W3w+qE9f+vyV+288uv6Vmzs/qg8r98izKaKV+1dYfL5Fo8ak/0bjdl3J+ydg5+ik+rNxX0MbVt6i/hhTnx/7b2Stv27c38/4AEEX0az2c9CrOGv+t3MT3qz9NDqvp/G1Ojclsnx952a0Vu/WeT2Nn9a5g+OlXw12oi26PoP7pFXdz0H36qr5zWBunsXnJ/d4simpQUv9qud3cr8Uq98Mevw3jV/xAODTQUqGX/H5bd5/CfvtGN8gcUL9tOVKKoAnpms72S2APda7hsgSc2SX1wwnbtLTzckI2gVa1iCxWXlGkFl7tKDFm/IKg66kNoE1FW7FOqx5WQkb4ck7sG1wWu2ZQNCwVuZ9pRY1rFV2WONexjaNK3WeAmXj4dPgBmbW4CcFGs87HsxoopieuBl19FSfkseSnwbOSQWwUapZmTnohukCQb/Nm0DQqlsFgp6hN4GgA7oLYK86Fwg6q94E8Eu7QNAd9iaA/WdvAsHcBBUIeujeBKLNJy5yYFO5wIgm96hAYGXcBKLZcSKwotkPIlA4kH8R4E4a/h0Kh1quAu9pjRKO1FCBGo0QEFujNNbe6zMb+0UgGJ4i+dbSo4kxEnDcAsHWkAx8CXroWgu7MqJZWcJRKBODKD4GYQtEcwjlpcMbSMyfM0KA95Lw1Go46keMxMqZgMvAixSNQRAqRGXu+mWOCAcHfRbKFgj2klQL1RKNqJR0Ww0vFOEP1RpdWVKQUVt0KUoG8wweCSZZyTt0bqS9lPO+BaipzlrqRNdg9sPSKOQZAMNqRsNmM1KV4ufWoPHuUjO0BpNwl/pAjanmR2CoQDAKTrgvLZz3JZZxS9GXlmzpFghMOA3n5WhwodjeZ6gTr5IkLFo43lEYD/FgKheIllUEwuFaLhBM7lGBcECYCxDPID0/NucPCY4c3iXIFrhJsO93k+BxcHeJYOKcLlU4004E4ql5LhBtKAnKhpP/VCCcLegCgUZ2gWA+ogqEExhdIDA4VCCcIukCwZxKFQgnYYo2i2dtqkA4zdMFokvi3YmkKhDOPHWBaHu/O7fVBYK5fCoQzp51gWC6rQjE83NdAKO0LhA6pFIKMZiLsKy3+GFbBt8hq0BgvIqF8uJDfmsDLRUIJoeL0TRqdDNKwm7USLdKxddo0SqJ4TeCnvNLB5cd1l9gWiYVCGYLirV7ZpMHAlMFMO+7bC7CjNS9mPgjmGRhTsRYPOnM3JSxwqHBMsviieYjiqs1uTrXnbnJ5cXLZp5O7lewbObpq+P07/RgZ478S2FITaasLBtbvwWCwLHksLcAJmltXuhpi86PJFX/WyBQlRI+OUSoIMg0VQATWhaVmj3ya4RJ/OIq/c7Y3RkOEESa5cMFWsOGPcxwpp2o+8MP4nSTqMo5+X6Yyjediy1jKwg+FB5+B2EUzHBwmWzvxZz6M1ZsqUCQ0JLo4ArUjCUWz9wXFhAva4UJ3mUCqASGXlmHevJW+vU1C+g7AQn2LeaueQp5MbnsJKmFXFA5dWlp8BUEBizRvhqbDl2DfSvQS91euvMB6hrAX8GIoaYla6uzvdT0ylqBS9M+TZEfAoONxGbnYfCyWhnLGjxAzud+BYOtqt5A54SwgCS0VpDmsFYmK5zN1eyR8DsU+w6T2WlWrX0EmN6lemnybs2mZiZvjaxcmBXkOrMy1I5AQPnLKoBZvKxpvzX5nk6mNSbv1qRVqOfWo62RtA3TmtFcMuV5TSx0OjeafTi0BB4Nfr+oKN8JDPsOAVdWz0MoUGxZ8Uw/avMFAtNiArHAeFdAb9FQoLz7DumtVZpTsxaxgGq+UKCZEggEsikynOMzNTMfCYzLmcbJYENdy1hALYFQIPs7sMDje4mrP6YvKwtcdisLlHf/Qva9xBUprr2phG66vTR55pTV4CwOn852OaLkKW4Bvac5mzqtjeqLKHIXqBqFe/E+vhMQP+5FsvhOQK+shUGELSC0kMUz4qfNfnkFLr4TUL20MPozrXr8RYH4TkAvFM5qz6zh0yPAA9X0xC2eAJmVC3NiWvRI1lLgFcj7TqCbAJ7pZEqApwafqJ4JkO09HzNDV1TnqjfQigpdfbeSse6T1V7psO8Ehv8FrgWWwGAsoMWxD3MqtoSOu4okpjIYfoeEmEy/Q0JJ07GEOBG/QyK//eZWeBBIDPV6f4eEXkXBJ7d5p9EuHOb2Bvu8m+seCmgIZfFMsX47q9wkQuN3oYA6QwtJD6Np4DUWcJ1J+ma0y3UaCFwUFNy/W0DC05GA1Ta9CFHfCfjdRYmIYdPWF8eChwdpAoFi8+VDAd98dLMMm8h6BGh7Z3O3+LLzmXCv/OR3AhoAX9z1wqayrsVtTawtwrEh6KWT8jjXwtTfSBb7YsNpJItBsmk2HvMAFwZphscrQgHfGkSq70Y4jAU0tMsGbDfmdCTgwQHO72wBfyRKE3Qrulpcg+g95xazVbaAbz7qcn667Nk7UDz7cITcGaJH6hZNWEj87F1tubWQRdf7xWXMtJfaxXsifli3XlGxgF+7FAvu9aK9AwG/Rakf2BZwzUdFiN0GfBwBeqRi6csVtTjVhNBCjlvP5utzdVC3IQFror3UratcEBHpSZlPJ+bCfXg9ukZBGm8kvCZP+kt2Hjgy1R+zW7kusj+XdA3F5PtjFtnk6R1GoFkTlXFbZmBNDKG8yL9fBegvmG+2mMjUzNE6ArBKzcp+1+QZGO40cf3RaRLvf4EeydPIoUC1rUHK+JDJ/ZGoMX677FZKzG0BdZomhhTPKAPPFfKsBI/6Y/P9ai/NGdVW7DwMHndVLK8wkMjUsm2+EQ2cUXU/0Axt1uFkcfVoS+YOcM+MliyvMHgI1GNBSy5YOoU3VQVwrN9jflzHdH41JuDqmIKtbuh21Bp1WlyjIx9mC0irn9O7gh7JWUMNr6w6zCLjqpTqBJqGFX+nEM0EyAytHptpuJeqh1oqnunajJdUMXj8qu/7IkC+aLWe6quil7UFNE1Q8Y6rNjVucalFLeahVEwIVY86FAxT1KxMwMWdwWq2M114lVyRFXSaatLWFot7kpwC2aYC1INhCzjtjqI/9THdmjFyUp2SkDGuUa3eamVc1mIs65XRPS5LW+AunrG3BfTD8ZCuYk3jDpsRNl+xKTOLxxBugWQCxHwqbiTy4LYtoGGKhHzJYh10Fre63ALqcCSMYJVuBBoeTrkFqgmQKV1sWsLpDwfn4XQrqCpANl/x3DnX7hUPY3OH21LtynqQ6VGsxfbiHtLFZoCcrn70DsXspYe/g01NO5Rm2t7Fjij3+S/Wp31ylqZkvUUnh7FL0q0xF7Zi3gKyWyeHgIt57JNjleVRruHkwGB5tBfG5DhftsKgySyJ7JUTzMPYAo+9A5mhp4GcLSvp1jwvX5pmWGTjoscCWvISCmT/C7BbsyUh50JLYAtcHolWqdsjTTxAr0aTXwXokZpmyyYH1bIZuluAbL7TSmmYACiybN2QjwBtPht/NDlsl6sGNyezt3KxzTdRzZyWVlUF6J4+HXttlcgXPS2E7ZHIhMtZY8aTC3izTVXeAsStOl2o7R1QzaRLYRAeUWMoz4HebrZO7pP59Nls7zkwCfkaxfFFgLrPJCtNPQVa1OXBWu7MgfmH5Np7YOw+WbZsdlylNE0vdQwyp6HFr1uAQsDJeKuHo8kCEsx5dRm/C3Qr62yol7aAfmmuwkmujLkvcbI5qpPbBqWmjbomtwJLVWlPL47mdwJedEn2UqpKSHp1w78LGF9yVoxKbwF/JNzeZrdOLgFLWV3LLYBf2uKts6DTlLIG+2fBEQ0pqcNxWKC0SsZ1OFMY6B0srjEzBgZTsmXNQWMYu4Ey3kDpsSJkLnNOxpfcAnShWOejU3hNlUfm0CQuRzHVzZMvrGpiJpyc7qW4wSQR2xQJDdCpycT5MGvdjJKHGTl2F3L3LIuXzGBSlfIVTnMA4u+YucCToLu1aFicYdbAxOHfwvN3zRQN5h9ZWcJgsroN7hhMn2/aXnkws6FpKmAsnqyt+yfoL2HZwMFmdtVg72Cj2ZKHp0EGPo++70QiR9X7e3AXnqL6agyMDJdLRxBqN1CUAHFajiC+2vNQnMAG642O+z/b9+XJBVndrjPqDfHidR0GLDkger8cAiz5gZp3GhVJMcm+b8X8SLJuKdxIxwZPjYL6ygZxbDytvyV5B9f/2+DuwxqlC149mzOaEn7/sc5ECWNxjxp+r1Gf3+C74amjgsUGgxZXj+rbziysxwaJsMv+2CAOJhY8qt96x2iROccbT8FTs9/OaGV8fgmdHv4g47vieX0kVdEr6pNHuSOdO8saA+H028P1l2B0z1hmZXm+zpPIbnheH8U/2Jfrhid/1ftCLvQYbn0kKbBn69l4TIHjuSeu45mScsNTCNrxDXM+tt8aT556bPBRwXzMo4NiWgnWU/ydw1zi35dOtQl91BueaK+Of9DeM3zlNqSO51j4DU/2pOMHUm8cz5OYbniy5x3fMHp0w+e38DW4rx1PHHzbn5W7Ct/wb+3/yhERxyekD9/wlLH19Xmi/SOD+9iffayLPyfAbDBs0MT/0SqOwlTMR/nbhf2XR+3hw37A55eAbmmB/m+Gpy4yj9r/pQb6UEhnh2aA6ymdSErB/ZZU/xfe/8kmImTueG2DMTPHu219EsaXkhLPyxP4jxLG3XjSJ1YTlzlelHUWQub7JWt4/0QUKYuoudnMeU3z3zM3LSoaU87M1rZBvmeyHjFMtB/pK+L3XfxEBr12/L5V9dUrhf8NXrJWJ4KHvy/+Y+axD1X92dyC+J7o/zPZk7jsGm/MlSnU9r48acmawGWeddNsP9cgfijn9+wQWP+u8Ydc8L7r6v9mnmNgROWccT270izPuC6M9wrn65WD/y6+Lc/P8ZOh9kBOmOcdej+eG4HqljUekh+kWQ8b1Mz2ydB42rFYYD9MG5zOdDJr8pmCbjIaX00T+QvGcQ2m4k2teEtcaWWk28SMjaWkxDS4p7vGV8/cQHweyckntsest/nJ6lP889ELO3XmUjw2W7FxRPOxgZKsopO1uEs8Tfk19/OHQJDDt8xu4lKDlLQ7buLKgZQ0s5sK3qvJaPqJZzalbO9QsJLmjCKVVQry39ZUMjHr/vxeVQFKrhwegv0FjHYXbWF0aAC0Spa/Scz2TsWmmSYmX1SbZsoWcrKUWHqYJWD9OxJPaklen82L1Kzsix+oWREX50Ca8eai5xEjdvI3a9awmz9Z1yD54JxP16RAMO+nK6lgYKVHMtrsQI7GuQJ++/ud1d3QS6fz8w+9dDrGUA+XTZIOaHOlaUFOpORuvDx/QxvE2XuN1dBU0gXnQJK1oOcxVsku/YCTtjRpW3l9bD4JX38epOLZIfnRpHbF9TwmqwzKQ5v9JDGz4mH9PUhSMWd4giQy0xH5pYeFq+9LXUOy9empnAO3oAf3U8/Waagyq97u4cKcYKta5Bx4LhbEwxhYtm5PBX2mbO2k2BTKVUlNBXOqZ7tL0A9jYLkqV7cga/Uc70fxxJi2vqOc8zzqSdcfq10syFDQB81NncrCpStNg2Y8SiVb05zMMUXrypN5f1r5dIC3RhOZCziG6sPw99VJx5xMHmrPMO80TwtKcC3GtCAkM/ptNkhGnzJPdRwyn3eb0JK50sMmGYf4as9P72ujZEO83L8csy9GogjxUs2cuWLVSDIZ9efGa1AxKujTIDne7yX5/qQY1cbb+9J9XZKyotmLLMm/L8bIra1eRmr6ScHoehJJ+xR56vuS/VCyBZkxZFPM889orxbrXJUxRnjKYPX7kv9SivqPPHK+GKkyY460FAuaof1TirYiT9gLo1hFR4iX7xvi5b4OiuarBf0whu3F3QlzLF49zhMZS1P7mWsCSlf9n3AGRukWdEWOXjH/PcT3N/HzreexyqwQn3U9A7zcdyG+634L8PMt/NQkeMKYd5lKQgjxzdaT9vPU+FKIX7aehF/qXyeuqPekQITXxtto/xQbKx/itXk42j/V7JkQX+35GT9t/xDeSNQhvtr+YbzvH+7Z8+j9EuCL4WE/bLzdd7Q/q8fp8fxWu68Td3Iql/Wk7lUepOealaKknQBv8QSeQ77x2c4L46vqQ7rvNn7Yfcp40z+Ib0rSSNxTqmnfkxD/3vN3jYeE+PfW37pIBPuhW3KO96cVwYV4zfDweRnqrwXn0eIJAd7GXPJ9WqfvnwCvKWHWP570j/B+3gm/tOgvxJs9jPrWilhDvNuTjPf9yfhl9hjgm8X/Q/xb91GzjuwhXnOujE8X+5/xmr3H+71d7neKnzQjSXJNc7N8QcIau5ZtYAxz3IwkmTB+svHD8NxMden+xBrZi/2AHLfi3yvA6wAXzNe0qvlH7s/WrJ1OsD42tCthzUSz/j7h79v9SxyrZj0uEsbfWvX7hfIjG2/6Cs+L5VP4/rrhKd90ex6Kt9/el+L/t/UkIs3te1HNq++HHDVo7u/E02L8/oe//+Gff/7Xv/zpL3/96z/++esv//Hz1///p19+/fnff/3lP//2xx//6R9//sPff97/9t8=);lineShape=1;" vertex="1" parent="1">
          <mxGeometry x="513.7116729464883" y="1553.7278351556724" width="584.5313475222611" height="253.24073893328693" as="geometry" />
        </mxCell>
      </root>
    </mxGraphModel>
  </diagram>
</mxfile>
